<svg width="222" height="43" viewBox="0 0 222 43" fill="none" xmlns="http://www.w3.org/2000/svg">
<path d="M68.0155 20.0461H62.2867L62.2557 17.6397H67.4566C68.3157 17.6397 69.066 17.4948 69.7077 17.205C70.3494 16.9152 70.8462 16.5012 71.1981 15.963C71.5604 15.4144 71.7415 14.7623 71.7415 14.0068C71.7415 13.1788 71.5811 12.506 71.2602 11.9885C70.9497 11.4607 70.4685 11.0777 69.8164 10.8397C69.1747 10.5913 68.3571 10.4671 67.3634 10.4671H62.9543V30.6187H59.958V8.0141H67.3634C68.5227 8.0141 69.5577 8.13313 70.4685 8.37118C71.3793 8.59888 72.1504 8.96113 72.7817 9.45794C73.4234 9.94439 73.9099 10.5654 74.2411 11.3209C74.5723 12.0765 74.7379 12.9821 74.7379 14.0378C74.7379 14.9693 74.4998 15.8129 74.0237 16.5684C73.5476 17.3136 72.8852 17.9243 72.0365 18.4004C71.1981 18.8765 70.2149 19.1818 69.0867 19.3164L68.0155 20.0461ZM67.8758 30.6187H61.1068L62.7991 28.1812H67.8758C68.828 28.1812 69.6353 28.0156 70.2977 27.6844C70.9704 27.3532 71.4828 26.8875 71.8347 26.2871C72.1866 25.6765 72.3625 24.9572 72.3625 24.1292C72.3625 23.2908 72.2125 22.5663 71.9123 21.9556C71.6121 21.345 71.1412 20.8741 70.4995 20.5429C69.8578 20.2117 69.0298 20.0461 68.0155 20.0461H63.7461L63.7771 17.6397H69.6146L70.2511 18.5091C71.3379 18.6022 72.259 18.9127 73.0146 19.4406C73.7701 19.9581 74.3446 20.6205 74.7379 21.4278C75.1415 22.2351 75.3433 23.1252 75.3433 24.0981C75.3433 25.5057 75.0328 26.696 74.4118 27.6689C73.8012 28.6314 72.937 29.3663 71.8192 29.8734C70.7013 30.3703 69.3869 30.6187 67.8758 30.6187ZM78.5726 22.4059V22.0488C78.5726 20.8378 78.7485 19.7149 79.1004 18.6798C79.4523 17.6345 79.9595 16.7289 80.6219 15.963C81.2843 15.1867 82.0864 14.5864 83.0283 14.162C83.9701 13.7273 85.0258 13.51 86.1954 13.51C87.3753 13.51 88.4362 13.7273 89.378 14.162C90.3302 14.5864 91.1376 15.1867 91.8 15.963C92.4727 16.7289 92.985 17.6345 93.3369 18.6798C93.6888 19.7149 93.8648 20.8378 93.8648 22.0488V22.4059C93.8648 23.6168 93.6888 24.7398 93.3369 25.7748C92.985 26.8098 92.4727 27.7155 91.8 28.4917C91.1376 29.2576 90.3354 29.8579 89.3936 30.2926C88.4621 30.717 87.4064 30.9292 86.2264 30.9292C85.0465 30.9292 83.9857 30.717 83.0438 30.2926C82.1019 29.8579 81.2946 29.2576 80.6219 28.4917C79.9595 27.7155 79.4523 26.8098 79.1004 25.7748C78.7485 24.7398 78.5726 23.6168 78.5726 22.4059ZM81.4447 22.0488V22.4059C81.4447 23.2442 81.543 24.036 81.7397 24.7812C81.9363 25.5161 82.2313 26.1681 82.6246 26.7374C83.0283 27.3066 83.5303 27.7569 84.1306 28.0881C84.7309 28.4089 85.4295 28.5693 86.2264 28.5693C87.0131 28.5693 87.7013 28.4089 88.2913 28.0881C88.8916 27.7569 89.3884 27.3066 89.7817 26.7374C90.175 26.1681 90.47 25.5161 90.6666 24.7812C90.8736 24.036 90.9771 23.2442 90.9771 22.4059V22.0488C90.9771 21.2208 90.8736 20.4394 90.6666 19.7045C90.47 18.9593 90.1698 18.3021 89.7662 17.7328C89.3729 17.1532 88.8761 16.6978 88.2758 16.3666C87.6858 16.0354 86.9924 15.8698 86.1954 15.8698C85.4088 15.8698 84.7153 16.0354 84.115 16.3666C83.5251 16.6978 83.0283 17.1532 82.6246 17.7328C82.2313 18.3021 81.9363 18.9593 81.7397 19.7045C81.543 20.4394 81.4447 21.2208 81.4447 22.0488ZM96.7059 22.4059V22.0488C96.7059 20.8378 96.8818 19.7149 97.2337 18.6798C97.5856 17.6345 98.0928 16.7289 98.7552 15.963C99.4176 15.1867 100.22 14.5864 101.162 14.162C102.103 13.7273 103.159 13.51 104.329 13.51C105.509 13.51 106.57 13.7273 107.511 14.162C108.464 14.5864 109.271 15.1867 109.933 15.963C110.606 16.7289 111.118 17.6345 111.47 18.6798C111.822 19.7149 111.998 20.8378 111.998 22.0488V22.4059C111.998 23.6168 111.822 24.7398 111.47 25.7748C111.118 26.8098 110.606 27.7155 109.933 28.4917C109.271 29.2576 108.469 29.8579 107.527 30.2926C106.595 30.717 105.54 30.9292 104.36 30.9292C103.18 30.9292 102.119 30.717 101.177 30.2926C100.235 29.8579 99.428 29.2576 98.7552 28.4917C98.0928 27.7155 97.5856 26.8098 97.2337 25.7748C96.8818 24.7398 96.7059 23.6168 96.7059 22.4059ZM99.578 22.0488V22.4059C99.578 23.2442 99.6764 24.036 99.873 24.7812C100.07 25.5161 100.365 26.1681 100.758 26.7374C101.162 27.3066 101.664 27.7569 102.264 28.0881C102.864 28.4089 103.563 28.5693 104.36 28.5693C105.146 28.5693 105.835 28.4089 106.425 28.0881C107.025 27.7569 107.522 27.3066 107.915 26.7374C108.308 26.1681 108.603 25.5161 108.8 24.7812C109.007 24.036 109.11 23.2442 109.11 22.4059V22.0488C109.11 21.2208 109.007 20.4394 108.8 19.7045C108.603 18.9593 108.303 18.3021 107.899 17.7328C107.506 17.1532 107.009 16.6978 106.409 16.3666C105.819 16.0354 105.126 15.8698 104.329 15.8698C103.542 15.8698 102.849 16.0354 102.248 16.3666C101.658 16.6978 101.162 17.1532 100.758 17.7328C100.365 18.3021 100.07 18.9593 99.873 19.7045C99.6764 20.4394 99.578 21.2208 99.578 22.0488ZM118.457 17.1584V30.6187H115.569V13.8205H118.301L118.457 17.1584ZM117.867 21.583L116.531 21.5365C116.542 20.3876 116.692 19.3267 116.982 18.3538C117.271 17.3706 117.701 16.5167 118.27 15.7922C118.84 15.0677 119.548 14.5088 120.397 14.1155C121.246 13.7118 122.229 13.51 123.347 13.51C124.134 13.51 124.858 13.6238 125.52 13.8515C126.183 14.0689 126.757 14.4156 127.244 14.8917C127.73 15.3678 128.108 15.9785 128.377 16.7237C128.646 17.4689 128.781 18.3693 128.781 19.4251V30.6187H125.909V19.5648C125.909 18.685 125.759 17.9812 125.458 17.4534C125.169 16.9255 124.755 16.5426 124.216 16.3045C123.678 16.0561 123.047 15.9319 122.322 15.9319C121.474 15.9319 120.765 16.082 120.195 16.3821C119.626 16.6823 119.171 17.0963 118.829 17.6241C118.488 18.152 118.239 18.7575 118.084 19.4406C117.939 20.1133 117.867 20.8275 117.867 21.583ZM128.75 19.9995L126.825 20.5894C126.835 19.6683 126.985 18.7833 127.275 17.9346C127.575 17.0859 128.005 16.3304 128.563 15.668C129.133 15.0056 129.831 14.4829 130.659 14.0999C131.487 13.7066 132.434 13.51 133.5 13.51C134.401 13.51 135.198 13.629 135.891 13.8671C136.595 14.1051 137.185 14.4725 137.661 14.9693C138.148 15.4558 138.515 16.082 138.763 16.8479C139.012 17.6138 139.136 18.5246 139.136 19.5803V30.6187H136.248V19.5493C136.248 18.6074 136.098 17.8777 135.798 17.3602C135.508 16.8324 135.094 16.4649 134.556 16.2579C134.028 16.0406 133.397 15.9319 132.662 15.9319C132.031 15.9319 131.472 16.0406 130.985 16.2579C130.499 16.4753 130.09 16.7754 129.759 17.1584C129.428 17.531 129.174 17.9605 128.998 18.447C128.833 18.9334 128.75 19.4509 128.75 19.9995ZM150.454 30.9292C149.284 30.9292 148.223 30.7325 147.271 30.3392C146.329 29.9355 145.517 29.3715 144.834 28.647C144.161 27.9225 143.643 27.0634 143.281 26.0698C142.919 25.0762 142.738 23.9894 142.738 22.8095V22.1575C142.738 20.7913 142.94 19.5751 143.343 18.5091C143.747 17.4327 144.296 16.5219 144.989 15.7767C145.682 15.0314 146.469 14.4674 147.349 14.0844C148.229 13.7015 149.139 13.51 150.081 13.51C151.282 13.51 152.317 13.717 153.186 14.131C154.066 14.545 154.785 15.1246 155.344 15.8698C155.903 16.6047 156.317 17.4741 156.586 18.478C156.855 19.4716 156.99 20.5584 156.99 21.7383V23.0269H144.446V20.6826H154.118V20.4652C154.076 19.72 153.921 18.9955 153.652 18.2917C153.393 17.5879 152.979 17.0083 152.41 16.5529C151.841 16.0975 151.064 15.8698 150.081 15.8698C149.429 15.8698 148.829 16.0095 148.28 16.289C147.732 16.5581 147.261 16.9617 146.868 17.4999C146.474 18.0381 146.169 18.6954 145.952 19.4716C145.734 20.2479 145.625 21.1432 145.625 22.1575V22.8095C145.625 23.6065 145.734 24.3569 145.952 25.0607C146.179 25.7541 146.505 26.3648 146.93 26.8926C147.364 27.4205 147.887 27.8345 148.498 28.1346C149.119 28.4348 149.822 28.5849 150.609 28.5849C151.623 28.5849 152.482 28.3779 153.186 27.9639C153.89 27.5499 154.506 26.9961 155.034 26.3027L156.773 27.6844C156.41 28.233 155.95 28.7556 155.391 29.2524C154.832 29.7492 154.144 30.1529 153.326 30.4634C152.519 30.7739 151.561 30.9292 150.454 30.9292ZM163.215 16.4598V30.6187H160.343V13.8205H163.138L163.215 16.4598ZM168.463 13.7273L168.447 16.3977C168.209 16.3459 167.982 16.3149 167.764 16.3045C167.557 16.2838 167.319 16.2735 167.05 16.2735C166.388 16.2735 165.803 16.377 165.296 16.584C164.789 16.791 164.359 17.0808 164.007 17.4534C163.655 17.826 163.376 18.271 163.169 18.7885C162.972 19.2957 162.843 19.8546 162.781 20.4652L161.973 20.931C161.973 19.9167 162.072 18.9645 162.268 18.0744C162.475 17.1843 162.791 16.3977 163.215 15.7146C163.64 15.0211 164.178 14.4829 164.83 14.0999C165.492 13.7066 166.279 13.51 167.19 13.51C167.397 13.51 167.635 13.5359 167.904 13.5876C168.173 13.629 168.359 13.6756 168.463 13.7273ZM180.402 27.7465V19.099C180.402 18.4366 180.267 17.8622 179.998 17.3757C179.739 16.8789 179.346 16.496 178.818 16.2269C178.29 15.9578 177.638 15.8232 176.862 15.8232C176.137 15.8232 175.501 15.9474 174.952 16.1958C174.414 16.4442 173.99 16.7703 173.679 17.1739C173.379 17.5776 173.229 18.0123 173.229 18.478H170.357C170.357 17.8777 170.512 17.2826 170.823 16.6926C171.133 16.1027 171.578 15.5697 172.158 15.0935C172.748 14.6071 173.452 14.2241 174.269 13.9447C175.097 13.6549 176.018 13.51 177.033 13.51C178.254 13.51 179.33 13.717 180.262 14.131C181.204 14.545 181.939 15.1712 182.467 16.0095C183.005 16.8375 183.274 17.8777 183.274 19.1301V26.9547C183.274 27.5136 183.32 28.1088 183.414 28.7401C183.517 29.3715 183.667 29.9148 183.864 30.3703V30.6187H180.867C180.723 30.2875 180.609 29.8476 180.526 29.299C180.443 28.7401 180.402 28.2226 180.402 27.7465ZM180.899 20.4342L180.93 22.4524H178.026C177.209 22.4524 176.479 22.5197 175.837 22.6543C175.196 22.7785 174.657 22.97 174.223 23.2287C173.788 23.4875 173.457 23.8135 173.229 24.2068C173.001 24.5897 172.888 25.04 172.888 25.5575C172.888 26.0853 173.007 26.5666 173.245 27.0013C173.483 27.436 173.84 27.7827 174.316 28.0415C174.802 28.2899 175.397 28.4141 176.101 28.4141C176.981 28.4141 177.757 28.2278 178.43 27.8552C179.103 27.4826 179.636 27.0272 180.029 26.489C180.433 25.9508 180.65 25.4281 180.681 24.9209L181.908 26.3027C181.835 26.7374 181.639 27.2187 181.318 27.7465C180.997 28.2744 180.567 28.7815 180.029 29.268C179.501 29.7441 178.87 30.1425 178.135 30.4634C177.411 30.7739 176.593 30.9292 175.682 30.9292C174.544 30.9292 173.545 30.7066 172.686 30.2616C171.837 29.8165 171.175 29.2214 170.699 28.4762C170.233 27.7206 170 26.8771 170 25.9456C170 25.0451 170.176 24.2534 170.528 23.5703C170.88 22.8768 171.387 22.3024 172.049 21.847C172.712 21.3812 173.509 21.0293 174.44 20.7913C175.372 20.5532 176.412 20.4342 177.561 20.4342H180.899ZM190.664 17.4068V30.6187H187.792V13.8205H190.509L190.664 17.4068ZM189.981 21.583L188.785 21.5365C188.796 20.3876 188.966 19.3267 189.298 18.3538C189.629 17.3706 190.095 16.5167 190.695 15.7922C191.295 15.0677 192.009 14.5088 192.837 14.1155C193.676 13.7118 194.602 13.51 195.616 13.51C196.444 13.51 197.19 13.6238 197.852 13.8515C198.514 14.0689 199.078 14.4208 199.544 14.9072C200.02 15.3937 200.383 16.0251 200.631 16.8013C200.879 17.5672 201.004 18.5039 201.004 19.6114V30.6187H198.116V19.5803C198.116 18.7005 197.986 17.9967 197.728 17.4689C197.469 16.9307 197.091 16.5426 196.594 16.3045C196.098 16.0561 195.487 15.9319 194.762 15.9319C194.048 15.9319 193.396 16.082 192.806 16.3821C192.227 16.6823 191.725 17.0963 191.3 17.6241C190.886 18.152 190.56 18.7575 190.322 19.4406C190.095 20.1133 189.981 20.8275 189.981 21.583ZM216.249 13.8205H218.857V30.2616C218.857 31.7416 218.557 33.0043 217.957 34.0497C217.357 35.0951 216.518 35.8868 215.442 36.425C214.376 36.9736 213.144 37.2479 211.747 37.2479C211.167 37.2479 210.484 37.1547 209.698 36.9684C208.921 36.7925 208.155 36.4871 207.4 36.0524C206.655 35.6281 206.028 35.0537 205.521 34.3292L207.027 32.6214C207.731 33.4701 208.466 34.0601 209.232 34.3913C210.008 34.7225 210.774 34.8881 211.53 34.8881C212.44 34.8881 213.227 34.7173 213.889 34.3757C214.552 34.0342 215.064 33.527 215.426 32.8543C215.799 32.1919 215.985 31.3742 215.985 30.4013V17.5155L216.249 13.8205ZM204.683 22.4059V22.0798C204.683 20.7964 204.833 19.6321 205.133 18.5867C205.444 17.531 205.884 16.6254 206.453 15.8698C207.032 15.1142 207.731 14.5346 208.549 14.131C209.366 13.717 210.288 13.51 211.312 13.51C212.368 13.51 213.289 13.6963 214.076 14.0689C214.873 14.4311 215.545 14.9642 216.094 15.668C216.653 16.3614 217.093 17.1998 217.414 18.183C217.734 19.1663 217.957 20.2789 218.081 21.5209V22.9493C217.967 24.1809 217.745 25.2884 217.414 26.2716C217.093 27.2549 216.653 28.0932 216.094 28.7867C215.545 29.4801 214.873 30.0132 214.076 30.3858C213.279 30.748 212.347 30.9292 211.281 30.9292C210.277 30.9292 209.366 30.717 208.549 30.2926C207.741 29.8683 207.048 29.2731 206.468 28.5072C205.889 27.7413 205.444 26.8409 205.133 25.8059C204.833 24.7605 204.683 23.6272 204.683 22.4059ZM207.555 22.0798V22.4059C207.555 23.2442 207.638 24.0308 207.804 24.7657C207.979 25.5005 208.243 26.1474 208.595 26.7063C208.958 27.2652 209.418 27.7051 209.977 28.026C210.536 28.3365 211.204 28.4917 211.98 28.4917C212.932 28.4917 213.719 28.2899 214.34 27.8862C214.961 27.4826 215.452 26.9496 215.814 26.2871C216.187 25.6247 216.477 24.9054 216.684 24.1292V20.3876C216.57 19.8184 216.394 19.2698 216.156 18.7419C215.928 18.2037 215.628 17.7276 215.256 17.3136C214.893 16.8893 214.443 16.5529 213.905 16.3045C213.367 16.0561 212.735 15.9319 212.011 15.9319C211.224 15.9319 210.546 16.0975 209.977 16.4287C209.418 16.7496 208.958 17.1946 208.595 17.7639C208.243 18.3228 207.979 18.9748 207.804 19.72C207.638 20.4549 207.555 21.2415 207.555 22.0798Z" fill="#777777"/>
<path d="M18.6376 18.7925C26.6386 13.7886 37.4334 17.4948 32.9195 26.2516C28.4056 35.0033 -12.8659 18.7821 4.04824 26.8434C20.9624 34.9047 27.483 51.3231 34.405 35.8027C41.3271 20.2822 49.6668 -13.3021 26.2112 7.10808C2.75558 27.5182 8.65076 25.0318 18.6376 18.7925Z" fill="#777777"/>
</svg>
