<svg width="159" height="48" viewBox="0 0 159 48" fill="none" xmlns="http://www.w3.org/2000/svg">
<path d="M71.2902 23.5109H64.2004L64.162 20.5328H70.5985C71.6616 20.5328 72.5903 20.3535 73.3845 19.9949C74.1786 19.6362 74.7934 19.1239 75.229 18.4578C75.6773 17.7789 75.9014 16.9719 75.9014 16.0369C75.9014 15.0122 75.7029 14.1796 75.3058 13.5391C74.9215 12.8859 74.3259 12.4119 73.519 12.1173C72.7248 11.8099 71.7129 11.6562 70.4832 11.6562H65.0266V36.5953H61.3184V8.62047H70.4832C71.9178 8.62047 73.1987 8.76777 74.3259 9.06238C75.4531 9.34417 76.4074 9.79249 77.1887 10.4073C77.9829 11.0093 78.5849 11.7779 78.9948 12.7129C79.4047 13.648 79.6096 14.7688 79.6096 16.0753C79.6096 17.2281 79.315 18.2721 78.7258 19.2071C78.1366 20.1294 77.3168 20.8851 76.2665 21.4743C75.229 22.0635 74.0121 22.4414 72.6159 22.6079L71.2902 23.5109ZM71.1173 36.5953H62.7402L64.8344 33.5788H71.1173C72.2957 33.5788 73.2948 33.3739 74.1146 32.964C74.9472 32.5541 75.5812 31.9777 76.0167 31.2348C76.4522 30.479 76.67 29.5888 76.67 28.5641C76.67 27.5266 76.4842 26.6299 76.1128 25.8742C75.7413 25.1185 75.1585 24.5357 74.3643 24.1258C73.5702 23.7159 72.5455 23.5109 71.2902 23.5109H66.0065L66.0449 20.5328H73.2692L74.0569 21.6088C75.4019 21.7241 76.5419 22.1083 77.4769 22.7616C78.412 23.4021 79.1229 24.2218 79.6096 25.2209C80.1092 26.22 80.359 27.3216 80.359 28.5257C80.359 30.2677 79.9747 31.7407 79.2062 32.9448C78.4504 34.136 77.3809 35.0454 75.9975 35.6731C74.6141 36.2879 72.9874 36.5953 71.1173 36.5953ZM89.1587 7.08338V36.5953H85.585V7.08338H89.1587ZM98.7271 15.8063V36.5953H95.1534V15.8063H98.7271ZM94.8844 10.292C94.8844 9.71564 95.0573 9.22889 95.4031 8.83181C95.7618 8.43473 96.287 8.2362 96.9786 8.2362C97.6575 8.2362 98.1763 8.43473 98.5349 8.83181C98.9064 9.22889 99.0921 9.71564 99.0921 10.292C99.0921 10.8428 98.9064 11.3168 98.5349 11.7138C98.1763 12.0981 97.6575 12.2902 96.9786 12.2902C96.287 12.2902 95.7618 12.0981 95.4031 11.7138C95.0573 11.3168 94.8844 10.8428 94.8844 10.292ZM107.969 19.9372V36.5953H104.395V15.8063H107.777L107.969 19.9372ZM107.239 25.4131L105.586 25.3554C105.599 23.9336 105.785 22.6207 106.143 21.4167C106.502 20.1998 107.034 19.1431 107.738 18.2464C108.443 17.3498 109.32 16.6581 110.37 16.1714C111.421 15.6718 112.638 15.422 114.021 15.422C114.995 15.422 115.891 15.5629 116.711 15.8447C117.531 16.1137 118.242 16.5428 118.844 17.1321C119.446 17.7213 119.913 18.477 120.246 19.3992C120.579 20.3215 120.746 21.4359 120.746 22.7424V36.5953H117.191V22.9153C117.191 21.8266 117.006 20.9555 116.634 20.3023C116.275 19.649 115.763 19.1751 115.097 18.8805C114.431 18.5731 113.65 18.4194 112.753 18.4194C111.703 18.4194 110.825 18.6051 110.121 18.9765C109.416 19.348 108.853 19.8604 108.43 20.5136C108.007 21.1669 107.7 21.9162 107.508 22.7616C107.328 23.5942 107.239 24.478 107.239 25.4131ZM120.707 23.4533L118.325 24.1834C118.338 23.0434 118.523 21.9482 118.882 20.8979C119.254 19.8476 119.785 18.9125 120.477 18.0927C121.181 17.2729 122.046 16.6261 123.071 16.1522C124.095 15.6654 125.267 15.422 126.587 15.422C127.701 15.422 128.687 15.5694 129.546 15.864C130.417 16.1586 131.147 16.6133 131.736 17.2281C132.338 17.8301 132.793 18.6051 133.1 19.553C133.407 20.5008 133.561 21.628 133.561 22.9345V36.5953H129.987V22.8961C129.987 21.7305 129.802 20.8274 129.43 20.187C129.072 19.5337 128.559 19.079 127.893 18.8228C127.24 18.5539 126.459 18.4194 125.549 18.4194C124.768 18.4194 124.076 18.5539 123.474 18.8228C122.872 19.0918 122.366 19.4633 121.956 19.9372C121.546 20.3983 121.233 20.9299 121.015 21.5319C120.81 22.134 120.707 22.7744 120.707 23.4533ZM142.495 19.8027V44.5882H138.922V15.8063H142.188L142.495 19.8027ZM156.502 26.0279V26.4314C156.502 27.9429 156.323 29.3454 155.964 30.6391C155.605 31.92 155.08 33.0344 154.389 33.9823C153.71 34.9302 152.871 35.6667 151.872 36.1919C150.873 36.717 149.726 36.9796 148.432 36.9796C147.113 36.9796 145.947 36.7619 144.936 36.3263C143.924 35.8908 143.065 35.2568 142.361 34.4242C141.656 33.5916 141.093 32.5925 140.67 31.4269C140.26 30.2613 139.978 28.9484 139.825 27.4881V25.3362C139.978 23.7991 140.267 22.4222 140.689 21.2053C141.112 19.9885 141.669 18.9509 142.361 18.0927C143.065 17.2217 143.917 16.562 144.916 16.1137C145.915 15.6526 147.068 15.422 148.375 15.422C149.681 15.422 150.841 15.6782 151.852 16.1906C152.864 16.6901 153.716 17.4074 154.408 18.3425C155.1 19.2776 155.618 20.3983 155.964 21.7049C156.323 22.9986 156.502 24.4396 156.502 26.0279ZM152.928 26.4314V26.0279C152.928 24.9904 152.82 24.0169 152.602 23.1075C152.384 22.1852 152.045 21.3782 151.583 20.6866C151.135 19.9821 150.559 19.4313 149.854 19.0342C149.15 18.6243 148.311 18.4194 147.337 18.4194C146.441 18.4194 145.659 18.5731 144.993 18.8805C144.34 19.1879 143.783 19.6042 143.322 20.1294C142.861 20.6417 142.483 21.2309 142.188 21.897C141.906 22.5503 141.695 23.2291 141.554 23.9336V28.9099C141.81 29.8066 142.169 30.652 142.63 31.4461C143.091 32.2275 143.706 32.8615 144.474 33.3483C145.243 33.8222 146.21 34.0592 147.376 34.0592C148.336 34.0592 149.163 33.8606 149.854 33.4635C150.559 33.0536 151.135 32.4965 151.583 31.792C152.045 31.0875 152.384 30.2805 152.602 29.3711C152.82 28.4488 152.928 27.4689 152.928 26.4314Z" fill="#777777"/>
<path d="M37.2216 16.8554C40.1003 16.8554 42.434 14.5314 42.434 11.6647C42.434 8.79787 40.1003 6.47388 37.2216 6.47388C34.3429 6.47388 32.0093 8.79787 32.0093 11.6647C32.0093 14.5314 34.3429 16.8554 37.2216 16.8554Z" fill="#777777"/>
<path d="M18.9784 11.6647C17.9672 11.6647 16.9768 11.7529 16.0073 11.9086C15.0065 8.7578 12.0459 6.47388 8.55365 6.47388C4.23782 6.47388 0.735107 9.96208 0.735107 14.26C0.735107 16.6426 1.81407 18.776 3.50809 20.2035C1.75152 22.9961 0.735107 26.2923 0.735107 29.8324C0.735107 39.8661 8.90288 48.0001 18.9784 48.0001C29.0539 48.0001 37.2216 39.8661 37.2216 29.8324C37.2216 19.7986 29.0539 11.6647 18.9784 11.6647ZM26.0933 35.0231C25.1915 33.4711 23.5131 32.4278 21.5846 32.4278C19.656 32.4278 17.9776 33.4711 17.0759 35.0231C16.6328 34.2601 16.3722 33.3725 16.3722 32.4278C16.3722 29.5625 18.7073 27.237 21.5846 27.237C24.4618 27.237 26.7969 29.5625 26.7969 32.4278C26.7969 33.3725 26.5363 34.2601 26.0933 35.0231Z" fill="#777777"/>
</svg>
