<svg width="137" height="48" viewBox="0 0 137 48" fill="none" xmlns="http://www.w3.org/2000/svg">
<path d="M74.0108 43.9928V19.2074L74.3182 15.211H77.5845V43.9928H74.0108ZM60.0426 25.8361V25.4326C60.0426 23.8443 60.2283 22.4032 60.5998 21.1095C60.9712 19.803 61.5156 18.6822 62.2329 17.7472C62.9502 16.8121 63.8148 16.0948 64.8267 15.5953C65.8515 15.0829 67.0171 14.8267 68.3236 14.8267C69.6301 14.8267 70.7765 15.0573 71.7628 15.5184C72.7619 15.9667 73.6073 16.6264 74.299 17.4974C75.0035 18.3556 75.5607 19.3931 75.9706 20.61C76.3805 21.8268 76.6623 23.2038 76.816 24.7409V26.5085C76.6751 28.0328 76.3997 29.4034 75.9898 30.6202C75.5799 31.8371 75.0227 32.8746 74.3182 33.7328C73.6265 34.591 72.7747 35.2507 71.7628 35.7118C70.7637 36.1601 69.6045 36.3843 68.2852 36.3843C67.0043 36.3843 65.8515 36.1217 64.8267 35.5965C63.8148 35.0713 62.9502 34.3348 62.2329 33.387C61.5284 32.4391 60.984 31.3247 60.5998 30.0438C60.2283 28.7501 60.0426 27.3475 60.0426 25.8361ZM63.6163 25.4326V25.8361C63.6163 26.8736 63.7252 27.8535 63.9429 28.7757C64.1607 29.6852 64.4937 30.4921 64.942 31.1966C65.4031 31.9011 65.9795 32.4583 66.6712 32.8682C67.3757 33.2653 68.2083 33.4638 69.169 33.4638C70.3474 33.4638 71.3273 33.2076 72.1087 32.6953C72.9028 32.1829 73.5369 31.5104 74.0108 30.6779C74.4847 29.8325 74.8498 28.9294 75.106 27.9688V23.3383C74.9651 22.6338 74.7409 21.9485 74.4335 21.2825C74.1389 20.6164 73.7546 20.0208 73.2807 19.4956C72.8067 18.9576 72.2303 18.5349 71.5515 18.2275C70.8854 17.9073 70.104 17.7472 69.2074 17.7472C68.2339 17.7472 67.3949 17.9521 66.6904 18.362C65.9859 18.7719 65.4031 19.3355 64.942 20.0528C64.4937 20.7573 64.1607 21.5707 63.9429 22.4929C63.7252 23.4152 63.6163 24.395 63.6163 25.4326ZM86.8454 18.4773V36H83.2909V15.211H86.7493L86.8454 18.4773ZM93.3396 15.0957L93.3204 18.4004C93.0258 18.3364 92.744 18.298 92.475 18.2851C92.2188 18.2595 91.9242 18.2467 91.5912 18.2467C90.7714 18.2467 90.0477 18.3748 89.42 18.631C88.7924 18.8872 88.2608 19.2458 87.8253 19.7069C87.3898 20.1681 87.044 20.7189 86.7878 21.3593C86.5444 21.9869 86.3843 22.6786 86.3074 23.4344L85.3083 24.0108C85.3083 22.7555 85.43 21.5771 85.6734 20.4755C85.9296 19.3739 86.3202 18.4004 86.8454 17.555C87.3706 16.6968 88.0367 16.0308 88.8436 15.5568C89.6634 15.0701 90.6369 14.8267 91.7641 14.8267C92.0203 14.8267 92.3149 14.8587 92.6479 14.9228C92.9809 14.974 93.2115 15.0317 93.3396 15.0957ZM104.56 33.4638C105.406 33.4638 106.187 33.2909 106.904 32.9451C107.622 32.5992 108.211 32.1253 108.672 31.5233C109.133 30.9084 109.396 30.2103 109.46 29.429H112.841C112.777 30.6586 112.361 31.8051 111.592 32.8682C110.837 33.9185 109.844 34.7703 108.614 35.4236C107.385 36.064 106.033 36.3843 104.56 36.3843C102.998 36.3843 101.633 36.1089 100.468 35.5581C99.315 35.0073 98.3543 34.2516 97.5858 33.2909C96.83 32.3302 96.26 31.2286 95.8758 29.9862C95.5043 28.7309 95.3186 27.4052 95.3186 26.009V25.202C95.3186 23.8058 95.5043 22.4865 95.8758 21.244C96.26 19.9887 96.83 18.8808 97.5858 17.9201C98.3543 16.9594 99.315 16.2037 100.468 15.6529C101.633 15.1021 102.998 14.8267 104.56 14.8267C106.187 14.8267 107.609 15.1597 108.826 15.8258C110.043 16.4791 110.997 17.3757 111.688 18.5157C112.393 19.6429 112.777 20.9238 112.841 22.3584H109.46C109.396 21.5002 109.152 20.7253 108.73 20.0336C108.32 19.3419 107.756 18.7911 107.039 18.3812C106.334 17.9585 105.508 17.7472 104.56 17.7472C103.472 17.7472 102.556 17.9649 101.813 18.4004C101.083 18.8231 100.5 19.3995 100.064 20.1296C99.6416 20.8469 99.3342 21.6475 99.1421 22.5313C98.9627 23.4023 98.8731 24.2926 98.8731 25.202V26.009C98.8731 26.9184 98.9627 27.815 99.1421 28.6989C99.3214 29.5827 99.6224 30.3833 100.045 31.1006C100.481 31.8179 101.063 32.3943 101.794 32.8298C102.536 33.2525 103.459 33.4638 104.56 33.4638ZM115.896 25.8361V25.3941C115.896 23.8955 116.114 22.5057 116.55 21.2248C116.985 19.9311 117.613 18.8103 118.432 17.8624C119.252 16.9018 120.245 16.1588 121.411 15.6337C122.576 15.0957 123.883 14.8267 125.33 14.8267C126.79 14.8267 128.103 15.0957 129.269 15.6337C130.447 16.1588 131.446 16.9018 132.266 17.8624C133.099 18.8103 133.733 19.9311 134.168 21.2248C134.604 22.5057 134.822 23.8955 134.822 25.3941V25.8361C134.822 27.3347 134.604 28.7245 134.168 30.0054C133.733 31.2863 133.099 32.4071 132.266 33.3677C131.446 34.3156 130.454 35.0585 129.288 35.5965C128.135 36.1217 126.829 36.3843 125.369 36.3843C123.908 36.3843 122.595 36.1217 121.43 35.5965C120.264 35.0585 119.265 34.3156 118.432 33.3677C117.613 32.4071 116.985 31.2863 116.55 30.0054C116.114 28.7245 115.896 27.3347 115.896 25.8361ZM119.451 25.3941V25.8361C119.451 26.8736 119.572 27.8535 119.816 28.7757C120.059 29.6852 120.424 30.4921 120.911 31.1966C121.411 31.9011 122.032 32.4583 122.775 32.8682C123.518 33.2653 124.382 33.4638 125.369 33.4638C126.342 33.4638 127.194 33.2653 127.924 32.8682C128.667 32.4583 129.282 31.9011 129.768 31.1966C130.255 30.4921 130.62 29.6852 130.864 28.7757C131.12 27.8535 131.248 26.8736 131.248 25.8361V25.3941C131.248 24.3694 131.12 23.4023 130.864 22.4929C130.62 21.5707 130.249 20.7573 129.749 20.0528C129.262 19.3355 128.648 18.7719 127.905 18.362C127.175 17.9521 126.316 17.7472 125.33 17.7472C124.357 17.7472 123.498 17.9521 122.755 18.362C122.025 18.7719 121.411 19.3355 120.911 20.0528C120.424 20.7573 120.059 21.5707 119.816 22.4929C119.572 23.4023 119.451 24.3694 119.451 25.3941Z" fill="#777777"/>
<path d="M16.5182 5.62854H0.881104V21.2009H16.5182V5.62854Z" fill="#777777"/>
<path d="M26.9428 5.62854H21.7305V16.0101H26.9428V5.62854Z" fill="#777777"/>
<path d="M42.58 5.62854H32.1553V21.2009H42.58V5.62854Z" fill="#777777"/>
<path d="M32.1554 21.2006H16.5183V47.1544H32.1554V21.2006Z" fill="#777777"/>
<path d="M11.3058 36.7729H0.881104V47.1545H11.3058V36.7729Z" fill="#777777"/>
<path d="M11.3058 26.3914H0.881104V31.5821H11.3058V26.3914Z" fill="#777777"/>
<path opacity="0.8902" d="M42.58 36.7729H37.3677V47.1545H42.58V36.7729Z" fill="#777777"/>
<path d="M42.58 26.3914H37.3677V31.5821H42.58V26.3914Z" fill="#777777"/>
</svg>
