<svg width="208" height="51" viewBox="0 0 208 51" fill="none" xmlns="http://www.w3.org/2000/svg">
<g filter="url(#filter0_d_330_565)">
<path d="M81.4988 18.5779V20.0062C81.4988 21.7037 81.2866 23.2251 80.8623 24.5706C80.4379 25.9161 79.8273 27.0598 79.0303 28.0017C78.2334 28.9435 77.276 29.6629 76.1582 30.1597C75.0507 30.6565 73.8087 30.9049 72.4322 30.9049C71.097 30.9049 69.8705 30.6565 68.7527 30.1597C67.6453 29.6629 66.6827 28.9435 65.865 28.0017C65.0577 27.0598 64.4316 25.9161 63.9865 24.5706C63.5414 23.2251 63.3189 21.7037 63.3189 20.0062V18.5779C63.3189 16.8805 63.5363 15.3642 63.971 14.0291C64.416 12.6836 65.0422 11.5399 65.8495 10.598C66.6568 9.64582 67.6142 8.92132 68.7217 8.42451C69.8395 7.92771 71.0659 7.67931 72.4011 7.67931C73.7777 7.67931 75.0197 7.92771 76.1271 8.42451C77.2449 8.92132 78.2023 9.64582 78.9993 10.598C79.8066 11.5399 80.4224 12.6836 80.8468 14.0291C81.2815 15.3642 81.4988 16.8805 81.4988 18.5779ZM78.5335 20.0062V18.5469C78.5335 17.2014 78.3938 16.0111 78.1143 14.9761C77.8452 13.9411 77.4468 13.0717 76.9189 12.3679C76.3911 11.6641 75.7442 11.1311 74.9783 10.7688C74.2227 10.4066 73.3637 10.2254 72.4011 10.2254C71.4696 10.2254 70.6261 10.4066 69.8705 10.7688C69.1253 11.1311 68.4836 11.6641 67.9454 12.3679C67.4176 13.0717 67.0087 13.9411 66.7189 14.9761C66.4291 16.0111 66.2842 17.2014 66.2842 18.5469V20.0062C66.2842 21.3621 66.4291 22.5627 66.7189 23.6081C67.0087 24.6431 67.4227 25.5177 67.9609 26.2318C68.5095 26.9356 69.1564 27.4686 69.9016 27.8309C70.6571 28.1931 71.5007 28.3743 72.4322 28.3743C73.4051 28.3743 74.2693 28.1931 75.0249 27.8309C75.7804 27.4686 76.4169 26.9356 76.9344 26.2318C77.4623 25.5177 77.8608 24.6431 78.1299 23.6081C78.399 22.5627 78.5335 21.3621 78.5335 20.0062ZM88.423 17.0254V37.0528H85.5353V13.7962H88.1746L88.423 17.0254ZM99.7408 22.0556V22.3816C99.7408 23.6029 99.5959 24.7362 99.3061 25.7816C99.0163 26.8166 98.592 27.717 98.0331 28.4829C97.4845 29.2489 96.8066 29.844 95.9993 30.2683C95.192 30.6927 94.2656 30.9049 93.2203 30.9049C92.1542 30.9049 91.2124 30.7289 90.3947 30.377C89.577 30.0251 88.8836 29.5128 88.3143 28.84C87.7451 28.1673 87.2897 27.36 86.9481 26.4181C86.6169 25.4763 86.3892 24.4154 86.265 23.2355V21.4966C86.3892 20.2546 86.6221 19.142 86.9637 18.1588C87.3052 17.1755 87.7554 16.3371 88.3143 15.6437C88.8836 14.9399 89.5719 14.4069 90.3792 14.0446C91.1865 13.672 92.118 13.4857 93.1737 13.4857C94.2294 13.4857 95.1661 13.6927 95.9837 14.1067C96.8014 14.5104 97.4897 15.09 98.0486 15.8455C98.6075 16.6011 99.0267 17.5067 99.3061 18.5624C99.5959 19.6078 99.7408 20.7721 99.7408 22.0556ZM96.8531 22.3816V22.0556C96.8531 21.2172 96.7652 20.4306 96.5892 19.6957C96.4133 18.9505 96.139 18.2985 95.7664 17.7396C95.4041 17.1703 94.9384 16.7253 94.3691 16.4044C93.7999 16.0732 93.1219 15.9076 92.3353 15.9076C91.6108 15.9076 90.9795 16.0318 90.4413 16.2802C89.9134 16.5286 89.4632 16.865 89.0906 17.2893C88.718 17.7033 88.4127 18.1795 88.1746 18.7177C87.9469 19.2455 87.7761 19.7941 87.6623 20.3633V24.3843C87.8693 25.1088 88.1591 25.7919 88.5317 26.4336C88.9043 27.065 89.4011 27.5773 90.0221 27.9706C90.6431 28.3536 91.4245 28.545 92.3664 28.545C93.1426 28.545 93.8102 28.3846 94.3691 28.0638C94.9384 27.7326 95.4041 27.2823 95.7664 26.7131C96.139 26.1438 96.4133 25.4918 96.5892 24.7569C96.7652 24.0117 96.8531 23.2199 96.8531 22.3816ZM110.376 30.9049C109.206 30.9049 108.145 30.7082 107.193 30.3149C106.251 29.9113 105.439 29.3472 104.755 28.6227C104.083 27.8982 103.565 27.0391 103.203 26.0455C102.841 25.0519 102.66 23.9651 102.66 22.7852V22.1332C102.66 20.767 102.861 19.5508 103.265 18.4848C103.669 17.4084 104.217 16.4976 104.911 15.7524C105.604 15.0072 106.391 14.4431 107.27 14.0601C108.15 13.6772 109.061 13.4857 110.003 13.4857C111.204 13.4857 112.239 13.6927 113.108 14.1067C113.988 14.5207 114.707 15.1003 115.266 15.8455C115.825 16.5804 116.239 17.4498 116.508 18.4537C116.777 19.4473 116.912 20.5341 116.912 21.714V23.0026H104.367V20.6583H114.039V20.4409C113.998 19.6957 113.843 18.9712 113.574 18.2674C113.315 17.5636 112.901 16.984 112.332 16.5286C111.762 16.0732 110.986 15.8455 110.003 15.8455C109.351 15.8455 108.751 15.9852 108.202 16.2647C107.653 16.5338 107.183 16.9374 106.789 17.4756C106.396 18.0139 106.091 18.6711 105.873 19.4473C105.656 20.2236 105.547 21.1189 105.547 22.1332V22.7852C105.547 23.5822 105.656 24.3326 105.873 25.0364C106.101 25.7298 106.427 26.3405 106.851 26.8683C107.286 27.3962 107.809 27.8102 108.419 28.1103C109.04 28.4105 109.744 28.5606 110.531 28.5606C111.545 28.5606 112.404 28.3536 113.108 27.9396C113.812 27.5256 114.428 26.9718 114.955 26.2784L116.694 27.6601C116.332 28.2087 115.871 28.7313 115.312 29.2282C114.754 29.725 114.065 30.1286 113.248 30.4391C112.44 30.7496 111.483 30.9049 110.376 30.9049ZM123.137 17.3825V30.5944H120.265V13.7962H122.982L123.137 17.3825ZM122.454 21.5588L121.259 21.5122C121.269 20.3633 121.44 19.3024 121.771 18.3295C122.102 17.3463 122.568 16.4924 123.168 15.7679C123.769 15.0434 124.483 14.4845 125.311 14.0912C126.149 13.6875 127.075 13.4857 128.09 13.4857C128.918 13.4857 129.663 13.5995 130.325 13.8272C130.988 14.0446 131.552 14.3965 132.018 14.883C132.494 15.3694 132.856 16.0008 133.104 16.777C133.353 17.5429 133.477 18.4796 133.477 19.5871V30.5944H130.589V19.556C130.589 18.6763 130.46 17.9725 130.201 17.4446C129.942 16.9064 129.565 16.5183 129.068 16.2802C128.571 16.0318 127.96 15.9076 127.236 15.9076C126.522 15.9076 125.87 16.0577 125.28 16.3578C124.7 16.658 124.198 17.072 123.774 17.5998C123.36 18.1277 123.034 18.7332 122.796 19.4163C122.568 20.089 122.454 20.8032 122.454 21.5588ZM144.391 30.5944H139.671L139.702 28.1569H144.391C146.006 28.1569 147.351 27.8205 148.428 27.1478C149.504 26.4647 150.311 25.5125 150.849 24.2912C151.398 23.0595 151.672 21.6209 151.672 19.9752V18.5935C151.672 17.2997 151.517 16.1508 151.207 15.1469C150.896 14.1326 150.441 13.2787 149.84 12.5852C149.24 11.8814 148.505 11.3484 147.636 10.9862C146.777 10.6239 145.788 10.4428 144.67 10.4428H139.578V7.98981H144.67C146.151 7.98981 147.501 8.23821 148.723 8.73501C149.944 9.22147 150.994 9.93045 151.874 10.862C152.764 11.7831 153.447 12.9009 153.923 14.2154C154.4 15.5195 154.638 16.9892 154.638 18.6245V19.9752C154.638 21.6105 154.4 23.0854 153.923 24.3998C153.447 25.704 152.759 26.8166 151.859 27.7377C150.968 28.6589 149.892 29.3679 148.629 29.8647C147.377 30.3511 145.964 30.5944 144.391 30.5944ZM141.27 7.98981V30.5944H138.274V7.98981H141.27ZM157.944 22.3816V22.0245C157.944 20.8135 158.12 19.6906 158.472 18.6556C158.824 17.6102 159.331 16.7046 159.994 15.9387C160.656 15.1624 161.458 14.5621 162.4 14.1378C163.342 13.703 164.398 13.4857 165.567 13.4857C166.747 13.4857 167.808 13.703 168.75 14.1378C169.702 14.5621 170.509 15.1624 171.172 15.9387C171.845 16.7046 172.357 17.6102 172.709 18.6556C173.061 19.6906 173.237 20.8135 173.237 22.0245V22.3816C173.237 23.5925 173.061 24.7155 172.709 25.7505C172.357 26.7855 171.845 27.6912 171.172 28.4674C170.509 29.2333 169.707 29.8336 168.765 30.2683C167.834 30.6927 166.778 30.9049 165.598 30.9049C164.418 30.9049 163.358 30.6927 162.416 30.2683C161.474 29.8336 160.666 29.2333 159.994 28.4674C159.331 27.6912 158.824 26.7855 158.472 25.7505C158.12 24.7155 157.944 23.5925 157.944 22.3816ZM160.817 22.0245V22.3816C160.817 23.2199 160.915 24.0117 161.112 24.7569C161.308 25.4918 161.603 26.1438 161.996 26.7131C162.4 27.2823 162.902 27.7326 163.502 28.0638C164.103 28.3846 164.801 28.545 165.598 28.545C166.385 28.545 167.073 28.3846 167.663 28.0638C168.263 27.7326 168.76 27.2823 169.154 26.7131C169.547 26.1438 169.842 25.4918 170.038 24.7569C170.245 24.0117 170.349 23.2199 170.349 22.3816V22.0245C170.349 21.1965 170.245 20.4151 170.038 19.6802C169.842 18.935 169.542 18.2778 169.138 17.7085C168.745 17.1289 168.248 16.6735 167.648 16.3423C167.058 16.0111 166.364 15.8455 165.567 15.8455C164.781 15.8455 164.087 16.0111 163.487 16.3423C162.897 16.6735 162.4 17.1289 161.996 17.7085C161.603 18.2778 161.308 18.935 161.112 19.6802C160.915 20.4151 160.817 21.1965 160.817 22.0245ZM176.078 22.3816V22.0245C176.078 20.8135 176.254 19.6906 176.606 18.6556C176.958 17.6102 177.465 16.7046 178.127 15.9387C178.789 15.1624 179.592 14.5621 180.533 14.1378C181.475 13.703 182.531 13.4857 183.701 13.4857C184.88 13.4857 185.941 13.703 186.883 14.1378C187.835 14.5621 188.643 15.1624 189.305 15.9387C189.978 16.7046 190.49 17.6102 190.842 18.6556C191.194 19.6906 191.37 20.8135 191.37 22.0245V22.3816C191.37 23.5925 191.194 24.7155 190.842 25.7505C190.49 26.7855 189.978 27.6912 189.305 28.4674C188.643 29.2333 187.841 29.8336 186.899 30.2683C185.967 30.6927 184.912 30.9049 183.732 30.9049C182.552 30.9049 181.491 30.6927 180.549 30.2683C179.607 29.8336 178.8 29.2333 178.127 28.4674C177.465 27.6912 176.958 26.7855 176.606 25.7505C176.254 24.7155 176.078 23.5925 176.078 22.3816ZM178.95 22.0245V22.3816C178.95 23.2199 179.048 24.0117 179.245 24.7569C179.442 25.4918 179.737 26.1438 180.13 26.7131C180.533 27.2823 181.035 27.7326 181.636 28.0638C182.236 28.3846 182.935 28.545 183.732 28.545C184.518 28.545 185.207 28.3846 185.796 28.0638C186.397 27.7326 186.894 27.2823 187.287 26.7131C187.68 26.1438 187.975 25.4918 188.172 24.7569C188.379 24.0117 188.482 23.2199 188.482 22.3816V22.0245C188.482 21.1965 188.379 20.4151 188.172 19.6802C187.975 18.935 187.675 18.2778 187.271 17.7085C186.878 17.1289 186.381 16.6735 185.781 16.3423C185.191 16.0111 184.498 15.8455 183.701 15.8455C182.914 15.8455 182.221 16.0111 181.62 16.3423C181.03 16.6735 180.533 17.1289 180.13 17.7085C179.737 18.2778 179.442 18.935 179.245 19.6802C179.048 20.4151 178.95 21.1965 178.95 22.0245ZM197.844 16.4355V30.5944H194.972V13.7962H197.766L197.844 16.4355ZM203.091 13.703L203.076 16.3734C202.838 16.3216 202.61 16.2906 202.393 16.2802C202.186 16.2595 201.948 16.2492 201.679 16.2492C201.016 16.2492 200.431 16.3527 199.924 16.5597C199.417 16.7667 198.988 17.0565 198.636 17.4291C198.284 17.8017 198.004 18.2467 197.797 18.7642C197.601 19.2714 197.471 19.8303 197.409 20.4409L196.602 20.9067C196.602 19.8924 196.7 18.9402 196.897 18.0501C197.104 17.16 197.42 16.3734 197.844 15.6903C198.268 14.9968 198.807 14.4586 199.459 14.0757C200.121 13.6823 200.908 13.4857 201.818 13.4857C202.025 13.4857 202.263 13.5116 202.533 13.5633C202.802 13.6047 202.988 13.6513 203.091 13.703Z" fill="#777777"/>
<path d="M30.197 5.90049L45.8341 0.709717L30.197 21.4728L45.8341 42.2359L30.197 37.0452L45.8341 0.709717V42.2359" fill="#777777"/>
<path d="M30.1971 5.90051H4.13525L30.1971 21.4728L4.13525 37.0452H30.1971L4.13525 5.90051V37.0452" fill="#777777"/>
</g>
<defs>
<filter id="filter0_d_330_565" x="0.135254" y="0.709717" width="206.956" height="49.5262" filterUnits="userSpaceOnUse" color-interpolation-filters="sRGB">
<feFlood flood-opacity="0" result="BackgroundImageFix"/>
<feColorMatrix in="SourceAlpha" type="matrix" values="0 0 0 0 0 0 0 0 0 0 0 0 0 0 0 0 0 0 127 0" result="hardAlpha"/>
<feOffset dy="4"/>
<feGaussianBlur stdDeviation="2"/>
<feComposite in2="hardAlpha" operator="out"/>
<feColorMatrix type="matrix" values="0 0 0 0 0 0 0 0 0 0 0 0 0 0 0 0 0 0 0.25 0"/>
<feBlend mode="normal" in2="BackgroundImageFix" result="effect1_dropShadow_330_565"/>
<feBlend mode="normal" in="SourceGraphic" in2="effect1_dropShadow_330_565" result="shape"/>
</filter>
</defs>
</svg>
