<svg width="161" height="43" viewBox="0 0 161 43" fill="none" xmlns="http://www.w3.org/2000/svg">
<path d="M67.057 30.5935H62.3374L62.3685 28.1561H67.057C68.6717 28.1561 70.0172 27.8197 71.0936 27.1469C72.17 26.4638 72.9773 25.5116 73.5155 24.2903C74.064 23.0587 74.3383 21.62 74.3383 19.9743V18.5926C74.3383 17.2988 74.1831 16.15 73.8726 15.146C73.5621 14.1317 73.1067 13.2778 72.5064 12.5844C71.906 11.8806 71.1712 11.3476 70.3018 10.9853C69.4427 10.623 68.4543 10.4419 67.3365 10.4419H62.2443V7.98896H67.3365C68.8166 7.98896 70.1672 8.23736 71.3885 8.73416C72.6099 9.22061 73.6604 9.92959 74.5401 10.8611C75.4302 11.7823 76.1133 12.9001 76.5895 14.2145C77.0656 15.5186 77.3036 16.9883 77.3036 18.6237V19.9743C77.3036 21.6096 77.0656 23.0845 76.5895 24.399C76.1133 25.7031 75.4251 26.8157 74.5246 27.7369C73.6345 28.658 72.5581 29.367 71.2954 29.8638C70.043 30.3503 68.6303 30.5935 67.057 30.5935ZM63.9365 7.98896V30.5935H60.9401V7.98896H63.9365ZM84.2433 16.4346V30.5935H81.3712V13.7953H84.1657L84.2433 16.4346ZM89.4908 13.7022L89.4753 16.3725C89.2372 16.3208 89.0095 16.2897 88.7922 16.2794C88.5852 16.2587 88.3471 16.2483 88.078 16.2483C87.4156 16.2483 86.8308 16.3518 86.3237 16.5588C85.8165 16.7658 85.387 17.0556 85.0351 17.4282C84.6832 17.8008 84.4038 18.2459 84.1968 18.7634C84.0001 19.2705 83.8707 19.8294 83.8086 20.4401L83.0013 20.9058C83.0013 19.8915 83.0996 18.9393 83.2963 18.0492C83.5033 17.1591 83.819 16.3725 84.2433 15.6894C84.6677 14.996 85.2059 14.4577 85.8579 14.0748C86.5203 13.6815 87.307 13.4848 88.2178 13.4848C88.4248 13.4848 88.6628 13.5107 88.9319 13.5625C89.201 13.6039 89.3873 13.6504 89.4908 13.7022ZM91.0744 22.3807V22.0236C91.0744 20.8127 91.2503 19.6897 91.6022 18.6547C91.9541 17.6093 92.4613 16.7037 93.1237 15.9378C93.7861 15.1616 94.5882 14.5612 95.5301 14.1369C96.4719 13.7022 97.5276 13.4848 98.6972 13.4848C99.8771 13.4848 100.938 13.7022 101.88 14.1369C102.832 14.5612 103.639 15.1616 104.302 15.9378C104.975 16.7037 105.487 17.6093 105.839 18.6547C106.191 19.6897 106.367 20.8127 106.367 22.0236V22.3807C106.367 23.5917 106.191 24.7147 105.839 25.7497C105.487 26.7847 104.975 27.6903 104.302 28.4666C103.639 29.2325 102.837 29.8328 101.895 30.2675C100.964 30.6918 99.9082 30.904 98.7283 30.904C97.5483 30.904 96.4875 30.6918 95.5456 30.2675C94.6037 29.8328 93.7964 29.2325 93.1237 28.4666C92.4613 27.6903 91.9541 26.7847 91.6022 25.7497C91.2503 24.7147 91.0744 23.5917 91.0744 22.3807ZM93.9465 22.0236V22.3807C93.9465 23.2191 94.0448 24.0109 94.2415 24.7561C94.4381 25.4909 94.7331 26.143 95.1264 26.7122C95.5301 27.2815 96.0321 27.7317 96.6324 28.0629C97.2327 28.3838 97.9313 28.5442 98.7283 28.5442C99.5149 28.5442 100.203 28.3838 100.793 28.0629C101.393 27.7317 101.89 27.2815 102.283 26.7122C102.677 26.143 102.972 25.4909 103.168 24.7561C103.375 24.0109 103.479 23.2191 103.479 22.3807V22.0236C103.479 21.1956 103.375 20.4142 103.168 19.6794C102.972 18.9342 102.672 18.2769 102.268 17.7077C101.875 17.1281 101.378 16.6727 100.778 16.3415C100.188 16.0103 99.4942 15.8447 98.6972 15.8447C97.9106 15.8447 97.2171 16.0103 96.6168 16.3415C96.0269 16.6727 95.5301 17.1281 95.1264 17.7077C94.7331 18.2769 94.4381 18.9342 94.2415 19.6794C94.0448 20.4142 93.9465 21.1956 93.9465 22.0236ZM112.841 17.0246V37.0519H109.953V13.7953H112.592L112.841 17.0246ZM124.158 22.0547V22.3807C124.158 23.602 124.013 24.7354 123.724 25.7807C123.434 26.8157 123.01 27.7162 122.451 28.4821C121.902 29.248 121.224 29.8431 120.417 30.2675C119.61 30.6918 118.683 30.904 117.638 30.904C116.572 30.904 115.63 30.7281 114.812 30.3762C113.995 30.0243 113.301 29.5119 112.732 28.8392C112.163 28.1664 111.707 27.3591 111.366 26.4173C111.034 25.4754 110.807 24.4145 110.683 23.2346V21.4958C110.807 20.2538 111.04 19.1412 111.381 18.1579C111.723 17.1746 112.173 16.3363 112.732 15.6428C113.301 14.939 113.989 14.406 114.797 14.0437C115.604 13.6711 116.536 13.4848 117.591 13.4848C118.647 13.4848 119.584 13.6918 120.401 14.1058C121.219 14.5095 121.907 15.0891 122.466 15.8447C123.025 16.6002 123.444 17.5058 123.724 18.5616C124.013 19.6069 124.158 20.7713 124.158 22.0547ZM121.271 22.3807V22.0547C121.271 21.2163 121.183 20.4297 121.007 19.6949C120.831 18.9497 120.557 18.2976 120.184 17.7387C119.822 17.1695 119.356 16.7244 118.787 16.4036C118.217 16.0724 117.54 15.9068 116.753 15.9068C116.028 15.9068 115.397 16.031 114.859 16.2794C114.331 16.5278 113.881 16.8641 113.508 17.2885C113.136 17.7025 112.83 18.1786 112.592 18.7168C112.364 19.2447 112.194 19.7932 112.08 20.3625V24.3835C112.287 25.108 112.577 25.7911 112.949 26.4328C113.322 27.0641 113.819 27.5765 114.44 27.9698C115.061 28.3527 115.842 28.5442 116.784 28.5442C117.56 28.5442 118.228 28.3838 118.787 28.0629C119.356 27.7317 119.822 27.2815 120.184 26.7122C120.557 26.143 120.831 25.4909 121.007 24.7561C121.183 24.0109 121.271 23.2191 121.271 22.3807ZM130.943 6.74695V30.5935H128.055V6.74695H130.943ZM142.525 30.904C141.355 30.904 140.294 30.7074 139.342 30.3141C138.4 29.9104 137.588 29.3463 136.904 28.6218C136.232 27.8973 135.714 27.0383 135.352 26.0447C134.99 25.051 134.809 23.9643 134.809 22.7844V22.1323C134.809 20.7661 135.01 19.55 135.414 18.4839C135.818 17.4075 136.366 16.4967 137.06 15.7515C137.753 15.0063 138.54 14.4422 139.42 14.0593C140.299 13.6763 141.21 13.4848 142.152 13.4848C143.353 13.4848 144.388 13.6918 145.257 14.1058C146.137 14.5198 146.856 15.0995 147.415 15.8447C147.974 16.5795 148.388 17.4489 148.657 18.4529C148.926 19.4465 149.061 20.5332 149.061 21.7131V23.0017H136.516V20.6574H146.188V20.4401C146.147 19.6949 145.992 18.9704 145.723 18.2666C145.464 17.5628 145.05 16.9832 144.481 16.5278C143.911 16.0724 143.135 15.8447 142.152 15.8447C141.5 15.8447 140.9 15.9844 140.351 16.2638C139.803 16.5329 139.332 16.9366 138.938 17.4748C138.545 18.013 138.24 18.6702 138.022 19.4465C137.805 20.2227 137.696 21.118 137.696 22.1323V22.7844C137.696 23.5813 137.805 24.3317 138.022 25.0355C138.25 25.729 138.576 26.3396 139 26.8675C139.435 27.3953 139.958 27.8093 140.568 28.1095C141.189 28.4096 141.893 28.5597 142.68 28.5597C143.694 28.5597 144.553 28.3527 145.257 27.9387C145.961 27.5247 146.577 26.971 147.104 26.2775L148.843 27.6593C148.481 28.2078 148.02 28.7305 147.462 29.2273C146.903 29.7241 146.214 30.1278 145.397 30.4383C144.589 30.7488 143.632 30.904 142.525 30.904ZM159.447 13.7953V15.9999H150.365V13.7953H159.447ZM153.439 9.71224H156.311V26.4328C156.311 27.002 156.399 27.4316 156.575 27.7214C156.751 28.0112 156.978 28.2026 157.258 28.2958C157.537 28.3889 157.837 28.4355 158.158 28.4355C158.396 28.4355 158.645 28.4148 158.904 28.3734C159.173 28.3217 159.374 28.2803 159.509 28.2492L159.525 30.5935C159.297 30.666 158.997 30.7332 158.624 30.7953C158.262 30.8678 157.822 30.904 157.304 30.904C156.601 30.904 155.954 30.7643 155.364 30.4848C154.774 30.2054 154.303 29.7396 153.951 29.0876C153.609 28.4252 153.439 27.5351 153.439 26.4173V9.71224Z" fill="#777777"/>
<path d="M4.45173 13.1977C16.289 -7.25911 37.3782 -0.941936 30.7533 20.2572C24.1284 41.4563 43.5862 21.2071 42.6479 33.4885C41.7097 45.7699 4.88958 44.8251 16.7216 32.5334C28.5485 20.2416 29.9089 16.0215 17.7433 23.9323C5.5776 31.843 -4.61257 28.8583 4.45173 13.1977Z" fill="#777777"/>
<path d="M4.45173 13.1977C16.289 -7.25911 37.3782 -0.941936 30.7533 20.2572C24.1284 41.4563 43.5862 21.2071 42.6479 33.4885C41.7097 45.7699 4.88958 44.8251 16.7216 32.5334C28.5485 20.2416 29.9089 16.0215 17.7433 23.9323C5.5776 31.843 -4.61257 28.8583 4.45173 13.1977Z" fill="#777777"/>
</svg>
