<svg width="885" height="1139" viewBox="0 0 885 1139" fill="none" xmlns="http://www.w3.org/2000/svg">
<g filter="url(#filter0_f_307_614)">
<circle cx="523.5" cy="523.5" r="159.5" fill="#DF00A1"/>
</g>
<path d="M881.378 562.668C924.5 424.112 922.578 309.7 890.444 224.377C858.299 139.024 795.945 82.8705 718.472 60.9128C563.552 17.0048 348.975 109.919 194.942 377.209C135.983 479.492 108.232 561.244 104.854 623.142C101.472 685.107 122.531 727.33 161.287 750.066C199.914 772.727 255.764 775.807 321.557 760.422C387.392 745.026 463.405 711.093 542.572 659.403C621.627 607.786 678.593 576.036 714.78 562.402C723.817 558.997 731.518 556.737 737.915 555.576C744.332 554.41 749.33 554.369 753.018 555.301C756.649 556.218 758.963 558.057 760.226 560.725C761.524 563.467 761.818 567.305 760.878 572.382C758.998 582.546 752.322 596.922 740.813 615.387C729.331 633.81 713.127 656.163 692.343 682.248C650.776 734.415 590.956 801.42 514.112 881.613C475.555 921.832 456.62 957.606 453.355 988.829C450.079 1020.15 462.591 1046.62 486.306 1068.09C509.976 1089.52 544.831 1105.99 586.442 1117.5C628.074 1129.01 676.574 1135.59 727.638 1137.14C829.749 1140.24 942.29 1123.28 1030.89 1085.42C1119.43 1047.59 1184.48 988.678 1190.64 907.695C1193.7 867.492 1188.48 840.297 1177.06 822.586C1165.58 804.788 1148.01 796.819 1127.05 794.7C1106.15 792.588 1081.74 796.272 1056.3 801.867C1043.56 804.668 1030.53 807.957 1017.52 811.256L1016.03 811.634C1003.5 814.81 991.007 817.978 978.781 820.726C953.334 826.445 929.208 830.305 908.65 828.641C888.141 826.98 871.347 819.842 860.272 803.694C849.142 787.467 843.595 761.876 846.284 722.884C848.971 683.92 859.867 631.783 881.378 562.668Z" stroke="#333333" stroke-width="3"/>
<rect x="443.5" y="18.5" width="379" height="785" rx="57.6305" fill="#111111" stroke="white" stroke-width="3"/>
<path d="M596.5 359L545.5 308V409.5H596.5V359Z" fill="url(#paint0_linear_307_614)"/>
<path d="M732 273.5L707 248.5V409.5H732V273.5Z" fill="url(#paint1_linear_307_614)"/>
<path d="M444 409.5L545.5 308M545.5 308L596.5 359M545.5 308V409.5M596.5 359L707 248.5M596.5 359V409.5M707 248.5L732 273.5M707 248.5V409.5M732 273.5L822.5 183M732 273.5V409.5" stroke="white" stroke-width="3"/>
<path d="M493.545 178.284V153.088H496.946V178.284H493.545ZM482.648 167.386V163.986H507.844V167.386H482.648ZM530.579 145.273V186H526.86V149.17H526.621L517.076 155.514V151.656L526.701 145.273H530.579ZM546.567 180.432L546.21 182.56C545.984 183.991 545.666 185.569 545.255 187.293C544.844 189.016 544.42 190.653 543.982 192.205C543.545 193.756 543.167 195.002 542.849 195.943H540.124C540.297 195.042 540.515 193.895 540.781 192.503C541.059 191.111 541.344 189.566 541.636 187.869C541.927 186.186 542.192 184.449 542.431 182.659L542.71 180.432H546.567ZM566.752 186.557C563.888 186.557 561.442 185.735 559.414 184.091C557.399 182.434 555.848 180.041 554.761 176.912C553.687 173.783 553.15 170.025 553.15 165.636C553.15 161.261 553.687 157.516 554.761 154.401C555.848 151.272 557.406 148.879 559.434 147.222C561.476 145.551 563.915 144.716 566.752 144.716C569.589 144.716 572.022 145.551 574.05 147.222C576.092 148.879 577.65 151.272 578.724 154.401C579.811 157.516 580.354 161.261 580.354 165.636C580.354 170.025 579.811 173.783 578.724 176.912C577.65 180.041 576.099 182.434 574.07 184.091C572.055 185.735 569.616 186.557 566.752 186.557ZM566.752 183.216C569.894 183.216 572.347 181.685 574.11 178.622C575.873 175.546 576.755 171.218 576.755 165.636C576.755 161.924 576.351 158.756 575.542 156.131C574.746 153.492 573.6 151.477 572.102 150.085C570.617 148.693 568.834 147.997 566.752 147.997C563.637 147.997 561.191 149.548 559.414 152.651C557.638 155.74 556.749 160.068 556.749 165.636C556.749 169.348 557.147 172.517 557.942 175.142C558.751 177.767 559.898 179.769 561.383 181.148C562.881 182.527 564.671 183.216 566.752 183.216ZM600.698 144.716C602.395 144.729 604.039 145.074 605.63 145.75C607.234 146.413 608.679 147.487 609.965 148.972C611.251 150.443 612.272 152.405 613.028 154.858C613.783 157.297 614.161 160.3 614.161 163.866C614.161 167.194 613.87 170.243 613.286 173.014C612.703 175.785 611.828 178.185 610.661 180.213C609.508 182.228 608.049 183.793 606.286 184.906C604.536 186.007 602.488 186.557 600.141 186.557C597.954 186.557 596.012 186.099 594.315 185.185C592.631 184.27 591.265 183.004 590.218 181.386C589.171 179.756 588.521 177.873 588.269 175.739H591.928C592.286 177.913 593.161 179.703 594.553 181.108C595.959 182.513 597.821 183.216 600.141 183.216C603.469 183.216 606.054 181.665 607.897 178.562C609.74 175.46 610.661 171.045 610.661 165.318H610.403C609.766 166.511 608.931 167.552 607.897 168.44C606.876 169.329 605.71 170.025 604.397 170.528C603.085 171.019 601.699 171.264 600.241 171.264C597.974 171.264 595.899 170.694 594.016 169.554C592.134 168.401 590.629 166.83 589.502 164.841C588.375 162.839 587.812 160.559 587.812 158C587.812 155.587 588.342 153.373 589.403 151.358C590.477 149.33 591.975 147.712 593.897 146.506C595.833 145.286 598.1 144.689 600.698 144.716ZM600.698 148.057C598.935 148.057 597.351 148.508 595.945 149.409C594.553 150.297 593.446 151.497 592.624 153.009C591.816 154.507 591.411 156.17 591.411 158C591.411 159.843 591.816 161.52 592.624 163.031C593.446 164.529 594.553 165.723 595.945 166.611C597.351 167.486 598.935 167.923 600.698 167.923C602.05 167.923 603.31 167.652 604.477 167.108C605.643 166.551 606.651 165.795 607.499 164.841C608.361 163.886 609.011 162.806 609.448 161.599C609.899 160.38 610.078 159.1 609.985 157.761C609.826 155.905 609.329 154.248 608.494 152.79C607.672 151.318 606.585 150.165 605.232 149.33C603.893 148.481 602.382 148.057 600.698 148.057ZM635.798 186.557C633.292 186.557 631.051 186.106 629.076 185.205C627.101 184.29 625.536 183.024 624.383 181.406C623.229 179.789 622.62 177.926 622.553 175.818H626.312C626.378 177.303 626.835 178.602 627.684 179.716C628.532 180.816 629.659 181.678 631.065 182.301C632.47 182.911 634.034 183.216 635.758 183.216C637.64 183.216 639.298 182.865 640.729 182.162C642.174 181.459 643.301 180.498 644.11 179.278C644.932 178.045 645.343 176.653 645.343 175.102C645.343 173.458 644.925 172.007 644.09 170.747C643.255 169.488 642.055 168.507 640.491 167.804C638.94 167.101 637.084 166.75 634.923 166.75H632.536V163.409H634.923C636.686 163.409 638.244 163.091 639.596 162.455C640.961 161.805 642.035 160.897 642.817 159.73C643.6 158.563 643.991 157.191 643.991 155.614C643.991 154.116 643.653 152.796 642.977 151.656C642.3 150.516 641.346 149.621 640.113 148.972C638.893 148.322 637.468 147.997 635.837 147.997C634.26 147.997 632.815 148.302 631.502 148.912C630.19 149.522 629.129 150.384 628.32 151.497C627.525 152.611 627.101 153.93 627.048 155.455H623.448C623.501 153.333 624.085 151.471 625.198 149.866C626.325 148.249 627.817 146.99 629.673 146.088C631.542 145.173 633.61 144.716 635.877 144.716C638.277 144.716 640.352 145.206 642.102 146.188C643.852 147.169 645.204 148.474 646.158 150.105C647.126 151.723 647.61 153.506 647.61 155.455C647.61 157.775 646.98 159.763 645.721 161.42C644.461 163.064 642.764 164.205 640.63 164.841V165.099C643.228 165.616 645.27 166.77 646.755 168.56C648.253 170.336 649.002 172.517 649.002 175.102C649.002 177.277 648.432 179.232 647.292 180.969C646.152 182.692 644.587 184.058 642.599 185.065C640.623 186.06 638.356 186.557 635.798 186.557ZM678.394 178.443V176.594C678.394 175.069 678.699 173.697 679.309 172.477C679.919 171.244 680.787 170.27 681.914 169.554C683.041 168.838 684.38 168.48 685.931 168.48C687.496 168.48 688.835 168.838 689.948 169.554C691.062 170.27 691.917 171.244 692.513 172.477C693.11 173.697 693.408 175.069 693.408 176.594V178.443C693.408 179.968 693.103 181.34 692.494 182.56C691.897 183.779 691.042 184.754 689.928 185.483C688.815 186.199 687.482 186.557 685.931 186.557C684.353 186.557 683.001 186.199 681.874 185.483C680.761 184.754 679.899 183.779 679.289 182.56C678.692 181.34 678.394 179.968 678.394 178.443ZM681.516 176.594V178.443C681.516 179.941 681.881 181.221 682.61 182.281C683.353 183.329 684.46 183.852 685.931 183.852C687.363 183.852 688.443 183.329 689.173 182.281C689.902 181.221 690.266 179.941 690.266 178.443V176.594C690.266 175.096 689.908 173.823 689.192 172.776C688.477 171.715 687.389 171.185 685.931 171.185C684.486 171.185 683.386 171.715 682.63 172.776C681.888 173.823 681.516 175.096 681.516 176.594ZM657.871 154.679V152.83C657.871 151.305 658.176 149.933 658.786 148.713C659.396 147.493 660.264 146.526 661.391 145.81C662.518 145.08 663.857 144.716 665.408 144.716C666.973 144.716 668.312 145.08 669.425 145.81C670.539 146.526 671.394 147.493 671.991 148.713C672.587 149.933 672.886 151.305 672.886 152.83V154.679C672.886 156.204 672.581 157.582 671.971 158.815C671.374 160.035 670.519 161.003 669.406 161.719C668.292 162.435 666.96 162.793 665.408 162.793C663.831 162.793 662.478 162.435 661.352 161.719C660.238 161.003 659.376 160.035 658.766 158.815C658.17 157.582 657.871 156.204 657.871 154.679ZM660.994 152.83V154.679C660.994 156.177 661.358 157.456 662.087 158.517C662.83 159.564 663.937 160.088 665.408 160.088C666.84 160.088 667.921 159.564 668.65 158.517C669.379 157.456 669.744 156.177 669.744 154.679V152.83C669.744 151.331 669.386 150.059 668.67 149.011C667.954 147.951 666.867 147.42 665.408 147.42C663.963 147.42 662.863 147.951 662.107 149.011C661.365 150.059 660.994 151.331 660.994 152.83ZM659.701 186L687.681 145.273H691.201L663.221 186H659.701Z" fill="#3EFFB9"/>
<path d="M478.159 219.42V217.545H491.25V219.42H485.761V235H483.648V219.42H478.159ZM496.251 227.125V235H494.239V217.545H496.251V223.955H496.421C496.728 223.278 497.188 222.741 497.802 222.344C498.421 221.94 499.245 221.739 500.273 221.739C501.165 221.739 501.947 221.918 502.617 222.276C503.288 222.628 503.808 223.17 504.177 223.903C504.552 224.631 504.739 225.557 504.739 226.682V235H502.728V226.818C502.728 225.778 502.458 224.974 501.918 224.406C501.384 223.832 500.643 223.545 499.694 223.545C499.035 223.545 498.444 223.685 497.921 223.963C497.404 224.241 496.995 224.648 496.694 225.182C496.398 225.716 496.251 226.364 496.251 227.125ZM508.419 235V221.909H510.43V235H508.419ZM509.442 219.727C509.05 219.727 508.712 219.594 508.428 219.327C508.149 219.06 508.01 218.739 508.01 218.364C508.01 217.989 508.149 217.668 508.428 217.401C508.712 217.134 509.05 217 509.442 217C509.834 217 510.169 217.134 510.447 217.401C510.732 217.668 510.874 217.989 510.874 218.364C510.874 218.739 510.732 219.06 510.447 219.327C510.169 219.594 509.834 219.727 509.442 219.727ZM523.387 224.841L521.58 225.352C521.467 225.051 521.299 224.759 521.077 224.474C520.862 224.185 520.566 223.946 520.191 223.759C519.816 223.571 519.336 223.477 518.751 223.477C517.95 223.477 517.282 223.662 516.748 224.031C516.219 224.395 515.955 224.858 515.955 225.42C515.955 225.92 516.137 226.315 516.501 226.605C516.864 226.895 517.433 227.136 518.205 227.33L520.148 227.807C521.319 228.091 522.191 228.526 522.765 229.111C523.339 229.69 523.626 230.437 523.626 231.352C523.626 232.102 523.41 232.773 522.978 233.364C522.552 233.955 521.955 234.42 521.188 234.761C520.421 235.102 519.529 235.273 518.512 235.273C517.177 235.273 516.072 234.983 515.197 234.403C514.322 233.824 513.768 232.977 513.535 231.864L515.444 231.386C515.626 232.091 515.969 232.619 516.475 232.972C516.987 233.324 517.654 233.5 518.478 233.5C519.415 233.5 520.16 233.301 520.711 232.903C521.268 232.5 521.546 232.017 521.546 231.455C521.546 231 521.387 230.619 521.069 230.312C520.751 230 520.262 229.767 519.603 229.614L517.421 229.102C516.222 228.818 515.342 228.378 514.779 227.781C514.222 227.179 513.944 226.426 513.944 225.523C513.944 224.784 514.151 224.131 514.566 223.562C514.987 222.994 515.558 222.548 516.279 222.224C517.006 221.901 517.83 221.739 518.751 221.739C520.046 221.739 521.063 222.023 521.802 222.591C522.546 223.159 523.075 223.909 523.387 224.841ZM533.676 217.545H536.199L542.131 232.034H542.335L548.267 217.545H550.79V235H548.812V221.739H548.642L543.188 235H541.278L535.824 221.739H535.653V235H533.676V217.545ZM560.073 235.273C558.891 235.273 557.854 234.991 556.962 234.429C556.076 233.866 555.383 233.08 554.883 232.068C554.388 231.057 554.141 229.875 554.141 228.523C554.141 227.159 554.388 225.969 554.883 224.952C555.383 223.935 556.076 223.145 556.962 222.582C557.854 222.02 558.891 221.739 560.073 221.739C561.255 221.739 562.289 222.02 563.175 222.582C564.067 223.145 564.761 223.935 565.255 224.952C565.755 225.969 566.005 227.159 566.005 228.523C566.005 229.875 565.755 231.057 565.255 232.068C564.761 233.08 564.067 233.866 563.175 234.429C562.289 234.991 561.255 235.273 560.073 235.273ZM560.073 233.466C560.971 233.466 561.71 233.236 562.289 232.776C562.869 232.315 563.298 231.71 563.576 230.96C563.854 230.21 563.994 229.398 563.994 228.523C563.994 227.648 563.854 226.832 563.576 226.077C563.298 225.321 562.869 224.71 562.289 224.244C561.71 223.778 560.971 223.545 560.073 223.545C559.175 223.545 558.437 223.778 557.857 224.244C557.278 224.71 556.849 225.321 556.57 226.077C556.292 226.832 556.153 227.648 556.153 228.523C556.153 229.398 556.292 230.21 556.57 230.96C556.849 231.71 557.278 232.315 557.857 232.776C558.437 233.236 559.175 233.466 560.073 233.466ZM571.087 227.125V235H569.075V221.909H571.018V223.955H571.189C571.496 223.29 571.962 222.756 572.587 222.352C573.212 221.943 574.018 221.739 575.007 221.739C575.893 221.739 576.669 221.92 577.334 222.284C577.999 222.642 578.516 223.188 578.885 223.92C579.254 224.648 579.439 225.568 579.439 226.682V235H577.428V226.818C577.428 225.79 577.161 224.989 576.626 224.415C576.092 223.835 575.359 223.545 574.428 223.545C573.786 223.545 573.212 223.685 572.706 223.963C572.206 224.241 571.811 224.648 571.521 225.182C571.232 225.716 571.087 226.364 571.087 227.125ZM588.808 221.909V223.614H582.023V221.909H588.808ZM584.001 218.773H586.012V231.25C586.012 231.818 586.094 232.244 586.259 232.528C586.43 232.807 586.646 232.994 586.907 233.091C587.174 233.182 587.455 233.227 587.751 233.227C587.972 233.227 588.154 233.216 588.296 233.193C588.438 233.165 588.552 233.142 588.637 233.125L589.046 234.932C588.91 234.983 588.719 235.034 588.475 235.085C588.231 235.142 587.921 235.17 587.546 235.17C586.978 235.17 586.421 235.048 585.876 234.804C585.336 234.56 584.887 234.188 584.529 233.688C584.177 233.188 584.001 232.557 584.001 231.795V218.773ZM594.126 227.125V235H592.114V217.545H594.126V223.955H594.296C594.603 223.278 595.063 222.741 595.677 222.344C596.296 221.94 597.12 221.739 598.148 221.739C599.04 221.739 599.822 221.918 600.492 222.276C601.163 222.628 601.683 223.17 602.052 223.903C602.427 224.631 602.614 225.557 602.614 226.682V235H600.603V226.818C600.603 225.778 600.333 224.974 599.793 224.406C599.259 223.832 598.518 223.545 597.569 223.545C596.91 223.545 596.319 223.685 595.796 223.963C595.279 224.241 594.87 224.648 594.569 225.182C594.273 225.716 594.126 226.364 594.126 227.125Z" fill="white"/>
<rect x="599.449" y="46.376" width="37.7864" height="17.4111" rx="8.70555" stroke="white" stroke-width="3"/>
<rect x="649.158" y="46.376" width="17.3932" height="17.4111" rx="8.69661" stroke="white" stroke-width="3"/>
<rect x="614.5" y="709.5" width="37" height="37" rx="6.5" stroke="white" stroke-width="3"/>
<rect x="710.5" y="709.5" width="37" height="37" rx="6.5" stroke="white" stroke-width="3"/>
<rect x="518.5" y="709.5" width="37" height="37" rx="6.5" stroke="white" stroke-width="3"/>
<rect x="561" y="780" width="144" height="6" rx="3" fill="white"/>
<rect x="477" y="52" width="40" height="6" rx="3" fill="white"/>
<rect x="725" y="52" width="16" height="6" rx="3" fill="white"/>
<rect x="749" y="52" width="16" height="6" rx="3" fill="white"/>
<rect x="773" y="52" width="16" height="6" rx="3" fill="white"/>
<rect x="478.5" y="445.5" width="309" height="61" rx="6.5" fill="#333333" stroke="white" stroke-width="3"/>
<path d="M718.689 480.932V469.682H720.598V480.932H718.689ZM714.018 476.261V474.352H725.268V476.261H714.018ZM735.498 466.545V484H733.384V468.761H733.282L729.021 471.591V469.443L733.384 466.545H735.498ZM746.109 484.239C744.938 484.239 743.904 484.031 743.006 483.616C742.114 483.196 741.418 482.619 740.918 481.886C740.418 481.148 740.171 480.307 740.177 479.364C740.171 478.625 740.316 477.943 740.612 477.318C740.907 476.687 741.31 476.162 741.822 475.741C742.339 475.315 742.915 475.045 743.552 474.932V474.83C742.717 474.614 742.052 474.145 741.558 473.423C741.063 472.696 740.819 471.869 740.825 470.943C740.819 470.057 741.043 469.264 741.498 468.565C741.952 467.866 742.577 467.315 743.373 466.912C744.174 466.509 745.086 466.307 746.109 466.307C747.12 466.307 748.023 466.509 748.819 466.912C749.614 467.315 750.239 467.866 750.694 468.565C751.154 469.264 751.387 470.057 751.393 470.943C751.387 471.869 751.134 472.696 750.634 473.423C750.14 474.145 749.484 474.614 748.665 474.83V474.932C749.296 475.045 749.864 475.315 750.37 475.741C750.876 476.162 751.279 476.687 751.58 477.318C751.881 477.943 752.035 478.625 752.04 479.364C752.035 480.307 751.779 481.148 751.273 481.886C750.773 482.619 750.077 483.196 749.185 483.616C748.299 484.031 747.273 484.239 746.109 484.239ZM746.109 482.364C746.898 482.364 747.58 482.236 748.154 481.98C748.728 481.724 749.171 481.364 749.484 480.898C749.796 480.432 749.955 479.886 749.961 479.261C749.955 478.602 749.785 478.02 749.45 477.514C749.114 477.009 748.657 476.611 748.077 476.321C747.504 476.031 746.847 475.886 746.109 475.886C745.364 475.886 744.7 476.031 744.114 476.321C743.535 476.611 743.077 477.009 742.742 477.514C742.413 478.02 742.251 478.602 742.256 479.261C742.251 479.886 742.401 480.432 742.708 480.898C743.021 481.364 743.467 481.724 744.046 481.98C744.626 482.236 745.313 482.364 746.109 482.364ZM746.109 474.08C746.734 474.08 747.288 473.955 747.771 473.705C748.259 473.455 748.643 473.105 748.921 472.656C749.2 472.207 749.342 471.682 749.347 471.08C749.342 470.489 749.202 469.974 748.93 469.537C748.657 469.094 748.279 468.753 747.796 468.514C747.313 468.27 746.751 468.148 746.109 468.148C745.455 468.148 744.884 468.27 744.396 468.514C743.907 468.753 743.529 469.094 743.262 469.537C742.995 469.974 742.864 470.489 742.87 471.08C742.864 471.682 742.998 472.207 743.271 472.656C743.549 473.105 743.933 473.455 744.421 473.705C744.91 473.955 745.472 474.08 746.109 474.08ZM764.205 480.727V479.807C764.205 479.17 764.335 478.588 764.597 478.06C764.864 477.526 765.25 477.099 765.756 476.781C766.267 476.457 766.886 476.295 767.614 476.295C768.352 476.295 768.972 476.457 769.472 476.781C769.972 477.099 770.349 477.526 770.605 478.06C770.861 478.588 770.989 479.17 770.989 479.807V480.727C770.989 481.364 770.858 481.949 770.597 482.483C770.341 483.011 769.96 483.437 769.455 483.761C768.955 484.08 768.341 484.239 767.614 484.239C766.875 484.239 766.253 484.08 765.747 483.761C765.241 483.437 764.858 483.011 764.597 482.483C764.335 481.949 764.205 481.364 764.205 480.727ZM765.943 479.807V480.727C765.943 481.256 766.068 481.73 766.318 482.151C766.568 482.565 767 482.773 767.614 482.773C768.21 482.773 768.631 482.565 768.875 482.151C769.125 481.73 769.25 481.256 769.25 480.727V479.807C769.25 479.278 769.131 478.807 768.892 478.392C768.653 477.972 768.227 477.761 767.614 477.761C767.017 477.761 766.588 477.972 766.327 478.392C766.071 478.807 765.943 479.278 765.943 479.807ZM755.511 470.739V469.818C755.511 469.182 755.642 468.599 755.903 468.071C756.17 467.537 756.557 467.111 757.062 466.793C757.574 466.469 758.193 466.307 758.92 466.307C759.659 466.307 760.278 466.469 760.778 466.793C761.278 467.111 761.656 467.537 761.912 468.071C762.168 468.599 762.295 469.182 762.295 469.818V470.739C762.295 471.375 762.165 471.96 761.903 472.494C761.648 473.023 761.267 473.449 760.761 473.773C760.261 474.091 759.648 474.25 758.92 474.25C758.182 474.25 757.56 474.091 757.054 473.773C756.548 473.449 756.165 473.023 755.903 472.494C755.642 471.96 755.511 471.375 755.511 470.739ZM757.25 469.818V470.739C757.25 471.267 757.375 471.741 757.625 472.162C757.875 472.577 758.307 472.784 758.92 472.784C759.517 472.784 759.938 472.577 760.182 472.162C760.432 471.741 760.557 471.267 760.557 470.739V469.818C760.557 469.29 760.438 468.818 760.199 468.403C759.96 467.983 759.534 467.773 758.92 467.773C758.324 467.773 757.895 467.983 757.634 468.403C757.378 468.818 757.25 469.29 757.25 469.818ZM756.159 484L768.159 466.545H770.102L758.102 484H756.159Z" fill="white"/>
<path d="M508.955 466.545V484H506.909L497.398 470.295H497.227V484H495.114V466.545H497.159L506.705 480.284H506.875V466.545H508.955ZM513.184 484V466.545H523.65V468.42H515.298V474.318H522.866V476.193H515.298V484H513.184ZM526.315 468.42V466.545H539.406V468.42H533.918V484H531.804V468.42H526.315Z" fill="white"/>
<rect x="478.5" y="525.5" width="309" height="61" rx="6.5" fill="#333333" stroke="white" stroke-width="3"/>
<path d="M703.9 560.932V549.682H705.809V560.932H703.9ZM699.229 556.261V554.352H710.479V556.261H699.229ZM720.709 546.545V564H718.595V548.761H718.493L714.232 551.591V549.443L718.595 546.545H720.709ZM731.183 564.239C730.183 564.239 729.283 564.04 728.482 563.642C727.68 563.244 727.038 562.699 726.555 562.006C726.072 561.312 725.808 560.523 725.763 559.636H727.808C727.888 560.426 728.246 561.08 728.882 561.597C729.524 562.108 730.291 562.364 731.183 562.364C731.899 562.364 732.536 562.196 733.092 561.861C733.655 561.526 734.095 561.065 734.413 560.48C734.737 559.889 734.899 559.222 734.899 558.477C734.899 557.716 734.732 557.037 734.396 556.44C734.067 555.838 733.612 555.364 733.033 555.017C732.453 554.67 731.791 554.494 731.047 554.489C730.513 554.483 729.964 554.565 729.402 554.736C728.839 554.901 728.376 555.114 728.013 555.375L726.036 555.136L727.092 546.545H736.161V548.42H728.865L728.251 553.568H728.354C728.712 553.284 729.161 553.048 729.7 552.861C730.24 552.673 730.803 552.58 731.388 552.58C732.456 552.58 733.408 552.835 734.243 553.347C735.084 553.852 735.743 554.545 736.22 555.426C736.703 556.307 736.945 557.312 736.945 558.443C736.945 559.557 736.695 560.551 736.195 561.426C735.7 562.295 735.018 562.983 734.149 563.489C733.28 563.989 732.291 564.239 731.183 564.239ZM746.126 564.239C745.41 564.227 744.694 564.091 743.978 563.83C743.262 563.568 742.609 563.128 742.018 562.509C741.427 561.884 740.952 561.04 740.594 559.977C740.237 558.909 740.058 557.568 740.058 555.955C740.058 554.409 740.202 553.04 740.492 551.847C740.782 550.648 741.202 549.639 741.754 548.821C742.305 547.997 742.969 547.372 743.748 546.946C744.532 546.52 745.415 546.307 746.398 546.307C747.376 546.307 748.245 546.503 749.006 546.895C749.773 547.281 750.398 547.821 750.881 548.514C751.364 549.207 751.677 550.006 751.819 550.909H749.739C749.546 550.125 749.171 549.474 748.614 548.957C748.058 548.44 747.319 548.182 746.398 548.182C745.046 548.182 743.981 548.77 743.202 549.946C742.43 551.122 742.04 552.773 742.035 554.898H742.171C742.489 554.415 742.867 554.003 743.305 553.662C743.748 553.315 744.237 553.048 744.771 552.861C745.305 552.673 745.87 552.58 746.467 552.58C747.467 552.58 748.381 552.83 749.211 553.33C750.04 553.824 750.705 554.509 751.205 555.384C751.705 556.253 751.955 557.25 751.955 558.375C751.955 559.455 751.714 560.443 751.231 561.341C750.748 562.233 750.069 562.943 749.194 563.472C748.325 563.994 747.302 564.25 746.126 564.239ZM746.126 562.364C746.842 562.364 747.484 562.185 748.052 561.827C748.626 561.469 749.077 560.989 749.407 560.386C749.742 559.784 749.91 559.114 749.91 558.375C749.91 557.653 749.748 556.997 749.424 556.406C749.106 555.81 748.665 555.335 748.103 554.983C747.546 554.631 746.91 554.455 746.194 554.455C745.654 554.455 745.151 554.562 744.685 554.778C744.219 554.989 743.81 555.278 743.458 555.648C743.112 556.017 742.839 556.44 742.64 556.918C742.441 557.389 742.342 557.886 742.342 558.409C742.342 559.102 742.504 559.75 742.827 560.352C743.157 560.955 743.606 561.44 744.174 561.81C744.748 562.179 745.398 562.364 746.126 562.364ZM764.205 560.727V559.807C764.205 559.17 764.335 558.588 764.597 558.06C764.864 557.526 765.25 557.099 765.756 556.781C766.267 556.457 766.886 556.295 767.614 556.295C768.352 556.295 768.972 556.457 769.472 556.781C769.972 557.099 770.349 557.526 770.605 558.06C770.861 558.588 770.989 559.17 770.989 559.807V560.727C770.989 561.364 770.858 561.949 770.597 562.483C770.341 563.011 769.96 563.437 769.455 563.761C768.955 564.08 768.341 564.239 767.614 564.239C766.875 564.239 766.253 564.08 765.747 563.761C765.241 563.437 764.858 563.011 764.597 562.483C764.335 561.949 764.205 561.364 764.205 560.727ZM765.943 559.807V560.727C765.943 561.256 766.068 561.73 766.318 562.151C766.568 562.565 767 562.773 767.614 562.773C768.21 562.773 768.631 562.565 768.875 562.151C769.125 561.73 769.25 561.256 769.25 560.727V559.807C769.25 559.278 769.131 558.807 768.892 558.392C768.653 557.972 768.227 557.761 767.614 557.761C767.017 557.761 766.588 557.972 766.327 558.392C766.071 558.807 765.943 559.278 765.943 559.807ZM755.511 550.739V549.818C755.511 549.182 755.642 548.599 755.903 548.071C756.17 547.537 756.557 547.111 757.062 546.793C757.574 546.469 758.193 546.307 758.92 546.307C759.659 546.307 760.278 546.469 760.778 546.793C761.278 547.111 761.656 547.537 761.912 548.071C762.168 548.599 762.295 549.182 762.295 549.818V550.739C762.295 551.375 762.165 551.96 761.903 552.494C761.648 553.023 761.267 553.449 760.761 553.773C760.261 554.091 759.648 554.25 758.92 554.25C758.182 554.25 757.56 554.091 757.054 553.773C756.548 553.449 756.165 553.023 755.903 552.494C755.642 551.96 755.511 551.375 755.511 550.739ZM757.25 549.818V550.739C757.25 551.267 757.375 551.741 757.625 552.162C757.875 552.577 758.307 552.784 758.92 552.784C759.517 552.784 759.938 552.577 760.182 552.162C760.432 551.741 760.557 551.267 760.557 550.739V549.818C760.557 549.29 760.438 548.818 760.199 548.403C759.96 547.983 759.534 547.773 758.92 547.773C758.324 547.773 757.895 547.983 757.634 548.403C757.378 548.818 757.25 549.29 757.25 549.818ZM756.159 564L768.159 546.545H770.102L758.102 564H756.159Z" fill="white"/>
<path d="M495.114 564V546.545H505.648V548.42H497.227V554.318H505.102V556.193H497.227V562.125H505.784V564H495.114ZM508.503 548.42V546.545H521.594V548.42H516.105V564H513.991V548.42H508.503ZM524.856 564V546.545H526.969V554.318H536.276V546.545H538.39V564H536.276V556.193H526.969V564H524.856Z" fill="white"/>
<rect x="478.5" y="605.5" width="309" height="61" rx="6.5" fill="#333333" stroke="white" stroke-width="3"/>
<path d="M679.431 640.932V629.682H681.34V640.932H679.431ZM674.761 636.261V634.352H686.011V636.261H674.761ZM689.283 644V642.466L695.045 636.159C695.721 635.42 696.278 634.778 696.715 634.233C697.153 633.682 697.477 633.165 697.687 632.682C697.903 632.193 698.011 631.682 698.011 631.148C698.011 630.534 697.863 630.003 697.567 629.554C697.278 629.105 696.88 628.759 696.374 628.514C695.869 628.27 695.3 628.148 694.67 628.148C693.999 628.148 693.414 628.287 692.914 628.565C692.42 628.838 692.036 629.222 691.763 629.716C691.496 630.21 691.363 630.79 691.363 631.455H689.352C689.352 630.432 689.587 629.534 690.059 628.761C690.531 627.989 691.173 627.386 691.985 626.955C692.803 626.523 693.721 626.307 694.738 626.307C695.761 626.307 696.667 626.523 697.457 626.955C698.246 627.386 698.866 627.969 699.315 628.702C699.763 629.435 699.988 630.25 699.988 631.148C699.988 631.79 699.871 632.418 699.638 633.031C699.411 633.639 699.013 634.318 698.445 635.068C697.883 635.812 697.102 636.722 696.102 637.795L692.181 641.989V642.125H700.295V644H689.283ZM706.849 641.614L706.712 642.534C706.616 643.182 706.468 643.875 706.269 644.614C706.076 645.352 705.874 646.048 705.664 646.702C705.454 647.355 705.281 647.875 705.144 648.261H703.61C703.684 647.898 703.781 647.418 703.9 646.821C704.019 646.224 704.138 645.557 704.258 644.818C704.383 644.085 704.485 643.335 704.565 642.568L704.667 641.614H706.849ZM715.625 644.239C714.341 644.239 713.247 643.889 712.344 643.19C711.44 642.486 710.75 641.466 710.273 640.131C709.795 638.79 709.557 637.17 709.557 635.273C709.557 633.386 709.795 631.776 710.273 630.44C710.756 629.099 711.449 628.077 712.352 627.372C713.261 626.662 714.352 626.307 715.625 626.307C716.898 626.307 717.986 626.662 718.889 627.372C719.798 628.077 720.491 629.099 720.969 630.44C721.452 631.776 721.693 633.386 721.693 635.273C721.693 637.17 721.455 638.79 720.977 640.131C720.5 641.466 719.81 642.486 718.906 643.19C718.003 643.889 716.909 644.239 715.625 644.239ZM715.625 642.364C716.898 642.364 717.886 641.75 718.591 640.523C719.295 639.295 719.648 637.545 719.648 635.273C719.648 633.761 719.486 632.474 719.162 631.412C718.844 630.349 718.384 629.54 717.781 628.983C717.185 628.426 716.466 628.148 715.625 628.148C714.364 628.148 713.378 628.77 712.668 630.014C711.957 631.253 711.602 633.006 711.602 635.273C711.602 636.784 711.761 638.068 712.08 639.125C712.398 640.182 712.855 640.986 713.452 641.537C714.054 642.088 714.778 642.364 715.625 642.364ZM730.489 626.307C731.205 626.312 731.92 626.449 732.636 626.716C733.352 626.983 734.006 627.426 734.597 628.045C735.188 628.659 735.662 629.497 736.02 630.56C736.378 631.622 736.557 632.955 736.557 634.557C736.557 636.108 736.409 637.486 736.114 638.69C735.824 639.889 735.403 640.901 734.852 641.724C734.307 642.548 733.642 643.173 732.858 643.599C732.08 644.026 731.199 644.239 730.216 644.239C729.239 644.239 728.366 644.045 727.599 643.659C726.838 643.267 726.213 642.724 725.724 642.031C725.241 641.332 724.932 640.523 724.795 639.602H726.875C727.062 640.403 727.435 641.065 727.991 641.588C728.554 642.105 729.295 642.364 730.216 642.364C731.563 642.364 732.625 641.776 733.403 640.599C734.188 639.423 734.58 637.761 734.58 635.614H734.443C734.125 636.091 733.747 636.503 733.31 636.849C732.872 637.196 732.386 637.463 731.852 637.651C731.318 637.838 730.75 637.932 730.148 637.932C729.148 637.932 728.23 637.685 727.395 637.19C726.565 636.69 725.901 636.006 725.401 635.136C724.906 634.261 724.659 633.261 724.659 632.136C724.659 631.068 724.898 630.091 725.375 629.205C725.858 628.312 726.534 627.602 727.403 627.074C728.278 626.545 729.307 626.29 730.489 626.307ZM730.489 628.182C729.773 628.182 729.128 628.361 728.554 628.719C727.986 629.071 727.534 629.548 727.199 630.151C726.869 630.747 726.705 631.409 726.705 632.136C726.705 632.864 726.864 633.526 727.182 634.122C727.506 634.713 727.946 635.185 728.503 635.537C729.065 635.884 729.705 636.057 730.42 636.057C730.96 636.057 731.463 635.952 731.929 635.741C732.395 635.526 732.801 635.233 733.148 634.864C733.5 634.489 733.776 634.065 733.974 633.594C734.173 633.116 734.273 632.619 734.273 632.102C734.273 631.42 734.108 630.781 733.778 630.185C733.455 629.588 733.006 629.105 732.432 628.736C731.864 628.366 731.216 628.182 730.489 628.182ZM739.499 640.42V638.682L747.17 626.545H748.431V629.239H747.579L741.783 638.409V638.545H752.113V640.42H739.499ZM747.715 644V639.892V639.082V626.545H749.727V644H747.715ZM764.205 640.727V639.807C764.205 639.17 764.335 638.588 764.597 638.06C764.864 637.526 765.25 637.099 765.756 636.781C766.267 636.457 766.886 636.295 767.614 636.295C768.352 636.295 768.972 636.457 769.472 636.781C769.972 637.099 770.349 637.526 770.605 638.06C770.861 638.588 770.989 639.17 770.989 639.807V640.727C770.989 641.364 770.858 641.949 770.597 642.483C770.341 643.011 769.96 643.437 769.455 643.761C768.955 644.08 768.341 644.239 767.614 644.239C766.875 644.239 766.253 644.08 765.747 643.761C765.241 643.437 764.858 643.011 764.597 642.483C764.335 641.949 764.205 641.364 764.205 640.727ZM765.943 639.807V640.727C765.943 641.256 766.068 641.73 766.318 642.151C766.568 642.565 767 642.773 767.614 642.773C768.21 642.773 768.631 642.565 768.875 642.151C769.125 641.73 769.25 641.256 769.25 640.727V639.807C769.25 639.278 769.131 638.807 768.892 638.392C768.653 637.972 768.227 637.761 767.614 637.761C767.017 637.761 766.588 637.972 766.327 638.392C766.071 638.807 765.943 639.278 765.943 639.807ZM755.511 630.739V629.818C755.511 629.182 755.642 628.599 755.903 628.071C756.17 627.537 756.557 627.111 757.062 626.793C757.574 626.469 758.193 626.307 758.92 626.307C759.659 626.307 760.278 626.469 760.778 626.793C761.278 627.111 761.656 627.537 761.912 628.071C762.168 628.599 762.295 629.182 762.295 629.818V630.739C762.295 631.375 762.165 631.96 761.903 632.494C761.648 633.023 761.267 633.449 760.761 633.773C760.261 634.091 759.648 634.25 758.92 634.25C758.182 634.25 757.56 634.091 757.054 633.773C756.548 633.449 756.165 633.023 755.903 632.494C755.642 631.96 755.511 631.375 755.511 630.739ZM757.25 629.818V630.739C757.25 631.267 757.375 631.741 757.625 632.162C757.875 632.577 758.307 632.784 758.92 632.784C759.517 632.784 759.938 632.577 760.182 632.162C760.432 631.741 760.557 631.267 760.557 630.739V629.818C760.557 629.29 760.438 628.818 760.199 628.403C759.96 627.983 759.534 627.773 758.92 627.773C758.324 627.773 757.895 627.983 757.634 628.403C757.378 628.818 757.25 629.29 757.25 629.818ZM756.159 644L768.159 626.545H770.102L758.102 644H756.159Z" fill="white"/>
<path d="M495.83 644H493.614L500.023 626.545H502.205L508.614 644H506.398L501.182 629.307H501.045L495.83 644ZM496.648 637.182H505.58V639.057H496.648V637.182ZM510.408 626.545L515.589 641.239H515.794L520.976 626.545H523.192L516.783 644H514.601L508.192 626.545H510.408ZM525.126 644H522.911L529.32 626.545H531.501L537.911 644H535.695L530.479 629.307H530.342L525.126 644ZM525.945 637.182H534.876V639.057H525.945V637.182ZM541.652 626.545L546.152 633.807H546.288L550.788 626.545H553.277L547.788 635.273L553.277 644H550.788L546.288 636.875H546.152L541.652 644H539.163L544.788 635.273L539.163 626.545H541.652Z" fill="white"/>
<rect x="209.5" y="496.5" width="307" height="307" rx="57.6305" fill="#111111" stroke="white" stroke-width="3"/>
<mask id="mask0_307_614" style="mask-type:alpha" maskUnits="userSpaceOnUse" x="211" y="498" width="304" height="304">
<rect x="211" y="498" width="304" height="304" rx="56.1305" fill="white"/>
</mask>
<g mask="url(#mask0_307_614)">
<path d="M192 817.5L294.844 714.656L346.52 766.331L458.483 654.368L483.815 679.699L575.513 588V817.5H483.815H458.483H346.52H294.844H192Z" fill="#DF00A1"/>
<path d="M192 817.5L294.844 714.656M192 817.5H294.844M192 817.5H346.52M192 817.5H458.483M192 817.5H483.815M294.844 714.656L346.52 766.331M294.844 714.656V817.5M346.52 766.331L458.483 654.368M346.52 766.331V817.5M458.483 654.368L483.815 679.699M458.483 654.368V817.5M483.815 679.699L575.513 588V817.5H483.815M483.815 679.699V817.5M294.844 817.5H346.52M294.844 817.5H458.483M294.844 817.5H483.815M346.52 817.5H458.483M346.52 817.5H483.815M458.483 817.5H483.815" stroke="#111111" stroke-width="3.03974"/>
<path d="M346.52 766.331L294.844 714.656V817.5H346.52V766.331Z" fill="url(#paint2_linear_307_614)"/>
<path d="M483.815 679.699L458.484 654.368V817.5H483.815V679.699Z" fill="url(#paint3_linear_307_614)"/>
<path d="M192 817.5L294.844 714.656M294.844 714.656L346.52 766.331M294.844 714.656V817.5M346.52 766.331L458.483 654.368M346.52 766.331V817.5M458.483 654.368L483.815 679.699M458.483 654.368V817.5M483.815 679.699L575.513 588M483.815 679.699V817.5" stroke="#111111" stroke-width="3.03974"/>
<path d="M404.659 644.968C412.195 620.746 411.904 600.601 406.208 585.47C400.501 570.311 389.392 560.275 375.56 556.354C347.922 548.517 310.213 565.173 283.351 611.805C273.082 629.626 268.164 644.007 267.563 655.025C266.958 666.11 270.739 673.944 277.961 678.183C285.055 682.346 295.116 682.82 306.667 680.117C318.26 677.405 331.576 671.447 345.393 662.422C359.099 653.469 368.881 648.028 375.019 645.714C376.545 645.139 377.804 644.773 378.816 644.59C379.846 644.402 380.514 644.424 380.91 644.524C381.248 644.609 381.31 644.723 381.343 644.793C381.411 644.937 381.497 645.306 381.358 646.06C381.076 647.581 380.027 649.909 378.044 653.091C376.088 656.232 373.309 660.069 369.721 664.575C362.545 673.584 352.199 685.179 338.884 699.079C332.106 706.152 328.616 712.604 328.009 718.41C327.393 724.308 329.777 729.272 334.125 733.209C338.428 737.107 344.678 740.034 351.993 742.058C359.329 744.087 367.841 745.238 376.774 745.51C394.623 746.053 414.327 743.091 429.892 736.437C445.4 729.808 457.226 719.303 458.347 704.556C458.886 697.472 457.993 692.43 455.797 689.024C453.546 685.531 450.099 684.018 446.208 683.624C442.376 683.237 437.98 683.915 433.546 684.89C431.315 685.381 429.036 685.957 426.781 686.528L426.529 686.592C424.352 687.145 422.199 687.69 420.096 688.163C415.701 689.152 411.672 689.783 408.305 689.51C404.988 689.242 402.482 688.115 400.837 685.717C399.138 683.239 398.167 679.135 398.626 672.483C399.082 665.86 400.941 656.918 404.659 644.968Z" fill="#111111" stroke="white" stroke-width="3"/>
</g>
<defs>
<filter id="filter0_f_307_614" x="0" y="0" width="1047" height="1047" filterUnits="userSpaceOnUse" color-interpolation-filters="sRGB">
<feFlood flood-opacity="0" result="BackgroundImageFix"/>
<feBlend mode="normal" in="SourceGraphic" in2="BackgroundImageFix" result="shape"/>
<feGaussianBlur stdDeviation="182" result="effect1_foregroundBlur_307_614"/>
</filter>
<linearGradient id="paint0_linear_307_614" x1="611" y1="184" x2="611" y2="410" gradientUnits="userSpaceOnUse">
<stop stop-color="#3EFFB9"/>
<stop offset="1" stop-color="#111111"/>
</linearGradient>
<linearGradient id="paint1_linear_307_614" x1="611" y1="184" x2="611" y2="410" gradientUnits="userSpaceOnUse">
<stop stop-color="#3EFFB9"/>
<stop offset="1" stop-color="#111111"/>
</linearGradient>
<linearGradient id="paint2_linear_307_614" x1="361.212" y1="728.841" x2="361.212" y2="818.007" gradientUnits="userSpaceOnUse">
<stop stop-color="#3EFFB9"/>
<stop offset="1" stop-color="#C4C4C4" stop-opacity="0"/>
</linearGradient>
<linearGradient id="paint3_linear_307_614" x1="361.212" y1="728.841" x2="361.212" y2="818.007" gradientUnits="userSpaceOnUse">
<stop stop-color="#3EFFB9"/>
<stop offset="1" stop-color="#C4C4C4" stop-opacity="0"/>
</linearGradient>
</defs>
</svg>
