<svg width="142" height="40" viewBox="0 0 142 40" fill="none" xmlns="http://www.w3.org/2000/svg">
<path d="M58.1371 28.7267H52.0156V9.81765H58.331C60.1837 9.81765 61.7749 10.1962 63.1044 10.9533C64.434 11.7043 65.4527 12.7845 66.1605 14.1941C66.8745 15.5975 67.2316 17.281 67.2316 19.2445C67.2316 21.2142 66.8715 22.9069 66.1513 24.3226C65.4373 25.7383 64.4032 26.8278 63.049 27.5911C61.6949 28.3482 60.0576 28.7267 58.1371 28.7267ZM54.8686 26.2338H57.9801C59.4205 26.2338 60.6177 25.963 61.5718 25.4213C62.5258 24.8735 63.2398 24.0826 63.7138 23.0485C64.1878 22.0082 64.4247 20.7402 64.4247 19.2445C64.4247 17.7611 64.1878 16.5023 63.7138 15.4682C63.246 14.4341 62.5474 13.6493 61.6179 13.1138C60.6885 12.5783 59.5344 12.3106 58.1556 12.3106H54.8686V26.2338ZM70.5577 28.7267V14.5449H73.2261V16.7978H73.3738C73.6323 16.0345 74.0878 15.4344 74.7403 14.9973C75.3989 14.5542 76.1437 14.3326 76.9746 14.3326C77.147 14.3326 77.3501 14.3387 77.584 14.351C77.8241 14.3633 78.0118 14.3787 78.1472 14.3972V17.0378C78.0364 17.007 77.8395 16.9732 77.5563 16.9363C77.2732 16.8932 76.99 16.8716 76.7069 16.8716C76.0544 16.8716 75.4727 17.0101 74.9618 17.2871C74.4571 17.5579 74.057 17.9365 73.7616 18.4228C73.4661 18.9029 73.3184 19.4507 73.3184 20.0662V28.7267H70.5577ZM86.0022 29.013C84.6726 29.013 83.5123 28.7083 82.5213 28.0989C81.5303 27.4895 80.7609 26.637 80.2131 25.5414C79.6653 24.4457 79.3914 23.1654 79.3914 21.7005C79.3914 20.2293 79.6653 18.9429 80.2131 17.8411C80.7609 16.7393 81.5303 15.8837 82.5213 15.2743C83.5123 14.665 84.6726 14.3603 86.0022 14.3603C87.3317 14.3603 88.492 14.665 89.483 15.2743C90.474 15.8837 91.2434 16.7393 91.7912 17.8411C92.339 18.9429 92.6129 20.2293 92.6129 21.7005C92.6129 23.1654 92.339 24.4457 91.7912 25.5414C91.2434 26.637 90.474 27.4895 89.483 28.0989C88.492 28.7083 87.3317 29.013 86.0022 29.013ZM86.0114 26.6955C86.8731 26.6955 87.5871 26.4677 88.1534 26.0123C88.7197 25.5568 89.1383 24.9505 89.4091 24.1934C89.6861 23.4363 89.8246 22.6022 89.8246 21.6912C89.8246 20.7864 89.6861 19.9554 89.4091 19.1983C89.1383 18.4351 88.7197 17.8226 88.1534 17.361C87.5871 16.8993 86.8731 16.6685 86.0114 16.6685C85.1435 16.6685 84.4233 16.8993 83.8509 17.361C83.2846 17.8226 82.8629 18.4351 82.586 19.1983C82.3151 19.9554 82.1797 20.7864 82.1797 21.6912C82.1797 22.6022 82.3151 23.4363 82.586 24.1934C82.8629 24.9505 83.2846 25.5568 83.8509 26.0123C84.4233 26.4677 85.1435 26.6955 86.0114 26.6955ZM95.6944 34.0449V14.5449H98.3905V16.8439H98.6213C98.7813 16.5485 99.0122 16.2069 99.3138 15.8191C99.6154 15.4313 100.034 15.0927 100.569 14.8034C101.105 14.508 101.813 14.3603 102.693 14.3603C103.838 14.3603 104.86 14.6496 105.758 15.2282C106.657 15.8068 107.362 16.6408 107.873 17.7303C108.39 18.8198 108.648 20.1309 108.648 21.6635C108.648 23.1962 108.393 24.5104 107.882 25.606C107.371 26.6955 106.669 27.5357 105.777 28.1266C104.884 28.7114 103.866 29.0037 102.721 29.0037C101.859 29.0037 101.154 28.8591 100.606 28.5698C100.065 28.2805 99.64 27.9419 99.3322 27.5542C99.0245 27.1664 98.7875 26.8217 98.6213 26.5201H98.4551V34.0449H95.6944ZM98.3997 21.6358C98.3997 22.633 98.5444 23.507 98.8337 24.258C99.123 25.0089 99.5415 25.5968 100.089 26.0215C100.637 26.4401 101.308 26.6493 102.102 26.6493C102.927 26.6493 103.616 26.4308 104.17 25.9938C104.724 25.5506 105.143 24.9505 105.426 24.1934C105.715 23.4363 105.86 22.5838 105.86 21.6358C105.86 20.7002 105.718 19.86 105.435 19.1152C105.158 18.3704 104.74 17.7826 104.18 17.3517C103.626 16.9209 102.933 16.7054 102.102 16.7054C101.302 16.7054 100.625 16.9116 100.071 17.324C99.523 17.7365 99.1076 18.312 98.8244 19.0506C98.5413 19.7892 98.3997 20.651 98.3997 21.6358ZM114.502 9.81765V28.7267H111.741V9.81765H114.502ZM124.328 29.013C122.931 29.013 121.728 28.7144 120.718 28.1174C119.715 27.5142 118.939 26.6678 118.391 25.5783C117.85 24.4827 117.579 23.1993 117.579 21.7282C117.579 20.2755 117.85 18.9952 118.391 17.8873C118.939 16.7793 119.702 15.9145 120.681 15.2928C121.666 14.6711 122.817 14.3603 124.134 14.3603C124.934 14.3603 125.71 14.4926 126.461 14.7573C127.212 15.022 127.886 15.4374 128.483 16.0037C129.08 16.57 129.551 17.3056 129.896 18.2104C130.24 19.1091 130.413 20.2017 130.413 21.4881V22.4668H119.139V20.3986H127.707C127.707 19.6723 127.56 19.0291 127.264 18.4689C126.969 17.9026 126.553 17.4564 126.018 17.1302C125.488 16.8039 124.867 16.6408 124.153 16.6408C123.377 16.6408 122.7 16.8316 122.121 17.2133C121.549 17.5887 121.106 18.0811 120.792 18.6905C120.484 19.2937 120.33 19.9493 120.33 20.6571V22.2729C120.33 23.2208 120.496 24.0272 120.829 24.6919C121.167 25.3567 121.638 25.8645 122.241 26.2154C122.845 26.5601 123.55 26.7324 124.356 26.7324C124.879 26.7324 125.356 26.6586 125.787 26.5108C126.218 26.357 126.59 26.1292 126.904 25.8276C127.218 25.526 127.458 25.1536 127.624 24.7104L130.237 25.1813C130.028 25.9507 129.652 26.6247 129.111 27.2033C128.575 27.7758 127.901 28.222 127.089 28.5421C126.282 28.856 125.362 29.013 124.328 29.013ZM140.096 14.5449V16.7608H132.349V14.5449H140.096ZM134.427 11.1472H137.187V24.5627C137.187 25.0982 137.267 25.5014 137.427 25.7722C137.587 26.0369 137.794 26.2185 138.046 26.3169C138.305 26.4093 138.585 26.4554 138.886 26.4554C139.108 26.4554 139.302 26.4401 139.468 26.4093C139.634 26.3785 139.763 26.3539 139.856 26.3354L140.354 28.616C140.194 28.6775 139.966 28.7391 139.671 28.8006C139.376 28.8683 139.006 28.9052 138.563 28.9114C137.837 28.9237 137.16 28.7945 136.532 28.5236C135.904 28.2528 135.396 27.8342 135.008 27.2679C134.621 26.7017 134.427 25.9907 134.427 25.1351V11.1472Z" fill="white"/>
<path d="M28.83 8.00697C29.9614 11.0123 29.9807 14.9026 28.5673 19.4459C27.9026 21.5824 27.589 23.1242 27.5135 24.2189C27.4364 25.3374 27.6202 25.8183 27.7461 26.002C27.8268 26.1197 27.9617 26.2358 28.3748 26.2692C28.8294 26.3061 29.4386 26.2215 30.2225 26.0452C30.5912 25.9623 30.9705 25.8661 31.3701 25.7648L31.4105 25.7545C31.8181 25.6511 32.2465 25.5429 32.6691 25.4499C33.4913 25.269 34.4175 25.1152 35.2769 25.2021C36.1854 25.294 37.1264 25.6714 37.7415 26.6257C38.3095 27.5069 38.462 28.6778 38.3576 30.0498C38.1122 33.2767 35.5363 35.4087 32.6 36.6638C29.6162 37.9393 25.8914 38.4914 22.5406 38.3895C20.8581 38.3383 19.2324 38.1214 17.8097 37.7278C16.4037 37.3387 15.1074 36.7528 14.1695 35.9034C13.1945 35.0204 12.5926 33.8273 12.7429 32.3897C12.8852 31.0292 13.6814 29.6643 14.984 28.305C17.3923 25.7908 19.2481 23.7095 20.5248 22.1066C20.9673 21.551 21.3333 21.0616 21.6253 20.6384C20.6131 21.1416 19.2189 21.9595 17.4066 23.1432C14.8285 24.8271 12.3056 25.9652 10.0625 26.4899C7.85468 27.0064 5.73189 26.9686 4.13235 26.0298C2.42657 25.0287 1.63869 23.2053 1.76292 20.9283C1.88405 18.708 2.85988 15.941 4.75881 12.6454L28.83 8.00697ZM28.83 8.00697C27.6894 4.97725 25.4401 2.92424 22.6166 2.12367M28.83 8.00697L22.6166 2.12367M22.6166 2.12367C16.9905 0.528507 9.75369 3.97459 4.75888 12.6452L22.6166 2.12367ZM23.1916 20.0386C23.1915 20.0386 23.1907 20.0386 23.1889 20.0386L23.1916 20.0386ZM22.441 19.1774C22.442 19.1691 22.4427 19.1682 22.4413 19.1759L22.441 19.1774Z" stroke="white" stroke-width="2.5"/>
</svg>
